<?xml version="1.0" encoding="UTF-8"?>
<svg version="1.1" xmlns="http://www.w3.org/2000/svg" width="41" height="35">
<path d="M0 0 C13.53 0 27.06 0 41 0 C41 0.99 41 1.98 41 3 C37.21092101 4.7987866 34.76178193 5.1373823 30.625 4.5625 C26.17207597 4.04249411 22.44095505 4.3033796 18 5 C17.030625 4.835 16.06125 4.67 15.0625 4.5 C12.25891652 4.04227208 10.61488079 4.1218907 7.875 4.5625 C4.19981497 4.97744025 2.93169698 5.0766187 0 3 C0 2.01 0 1.02 0 0 Z " fill="#FFFFFF" transform="translate(0,0)"/>
<path d="M0 0 C1.093125 0.185625 2.18625 0.37125 3.3125 0.5625 C6.93624133 1.2578068 6.93624133 1.2578068 10 0 C11.50694102 -0.09227946 13.01758146 -0.13067511 14.52734375 -0.1328125 C15.40197266 -0.13410156 16.27660156 -0.13539062 17.17773438 -0.13671875 C18.08845703 -0.13285156 18.99917969 -0.12898438 19.9375 -0.125 C20.84435547 -0.12886719 21.75121094 -0.13273437 22.68554688 -0.13671875 C23.56146484 -0.13542969 24.43738281 -0.13414063 25.33984375 -0.1328125 C26.13769287 -0.13168457 26.93554199 -0.13055664 27.75756836 -0.12939453 C30 0 30 0 32.05688477 0.53564453 C35.12217615 1.26817176 37.93422732 0.5306145 41 0 C41 0.99 41 1.98 41 3 C37.11999407 4.8587278 34.5573099 5.12422791 30.3125 4.5625 C26.51810889 3.91961992 26.51810889 3.91961992 23 5 C19.94384277 5.13582921 17.25119277 5.05138034 14.25 4.4375 C11.97586562 3.75802104 11.97586562 3.75802104 10 5 C6.04437178 5.25797575 3.40340307 5.09440189 0 3 C0 2.01 0 1.02 0 0 Z " fill="#FFFFFF" transform="translate(0,20)"/>
<path d="M0 0 C13.53 0 27.06 0 41 0 C41 0.99 41 1.98 41 3 C37.21092101 4.7987866 34.76178193 5.1373823 30.625 4.5625 C26.17207597 4.04249411 22.44095505 4.3033796 18 5 C17.030625 4.835 16.06125 4.67 15.0625 4.5 C12.25891652 4.04227208 10.61488079 4.1218907 7.875 4.5625 C4.19981497 4.97744025 2.93169698 5.0766187 0 3 C0 2.01 0 1.02 0 0 Z " fill="#FFFFFF" transform="translate(0,10)"/>
<path d="M0 0 C2.01822917 0.29296875 4.03645833 0.5859375 6.0546875 0.87890625 C8.08140667 1.1684297 8.08140667 1.1684297 10 0 C13.90253159 -0.14453821 17.23775393 0.02460287 21 1 C21.66 0.67 22.32 0.34 23 0 C26.30960024 -0.12489058 29.31999362 -0.14926969 32.5625 0.5625 C35.5825421 1.10455884 38.01754654 0.62423444 41 0 C41 0.99 41 1.98 41 3 C37.35008475 5.33594576 34.25425693 5.22790662 30 5 C29.35933594 4.82082031 28.71867187 4.64164063 28.05859375 4.45703125 C25.68993697 3.93116248 23.95337717 4.13536015 21.5625 4.5 C18.08855961 4.95709742 15.42848227 4.83114722 12 4 C11.01 4.495 11.01 4.495 10 5 C8.45386986 4.91348369 6.91090613 4.75997364 5.375 4.5625 C4.14910156 4.40974609 4.14910156 4.40974609 2.8984375 4.25390625 C1.95871094 4.12822266 1.95871094 4.12822266 1 4 C0.67 2.68 0.34 1.36 0 0 Z " fill="#FFFFFF" transform="translate(0,30)"/>
</svg>
