<?xml version="1.0" encoding="UTF-8"?>
<svg version="1.1" xmlns="http://www.w3.org/2000/svg" width="387" height="388">
<path d="M0 0 C1.05960938 0.35320313 2.11921875 0.70640625 3.2109375 1.0703125 C6.140625 2.046875 9.0703125 3.0234375 12 4 C12 4.66 12 5.32 12 6 C13.98 6.33 15.96 6.66 18 7 C18 7.66 18 8.32 18 9 C19.98 9.33 21.96 9.66 24 10 C24 10.66 24 11.32 24 12 C24.81210937 12.14115234 24.81210937 12.14115234 25.640625 12.28515625 C28.69771088 13.21139253 31.05769005 14.7245356 33.75 16.4375 C34.73484375 17.05496094 35.7196875 17.67242188 36.734375 18.30859375 C37.85585938 19.14583984 37.85585938 19.14583984 39 20 C39 20.66 39 21.32 39 22 C39.804375 22.3403125 39.804375 22.3403125 40.625 22.6875 C47.87609841 26.69468596 53.37632995 33.22510662 58 40 C58.76171875 42.84375 58.76171875 42.84375 59 45 C59.66 45 60.32 45 61 45 C61.33 46.65 61.66 48.3 62 50 C62.66 50 63.32 50 64 50 C64.32613281 50.85722656 64.65226562 51.71445312 64.98828125 52.59765625 C67.69585365 59.74979499 67.69585365 59.74979499 70.625 66.8125 C75.4655776 78.03383897 75.4655776 78.03383897 75 83 C75.66 83 76.32 83 77 83 C77.09474609 84.13888672 77.09474609 84.13888672 77.19140625 85.30078125 C77.56569266 88.33841092 78.04057723 91.09161529 79 94 C81.75719959 95.89557472 82.87759295 96.41491074 86 97 C87.11955078 97.21076172 87.11955078 97.21076172 88.26171875 97.42578125 C89.92539402 97.73386926 91.58948001 98.03974521 93.25390625 98.34375 C101.23966928 100.25215425 108.74566913 104.2333282 116 108 C116 108.66 116 109.32 116 110 C117.65 110.33 119.3 110.66 121 111 C121 111.66 121 112.32 121 113 C122.32 113.33 123.64 113.66 125 114 C125 114.66 125 115.32 125 116 C125.53625 116.20625 126.0725 116.4125 126.625 116.625 C129.91978009 118.53250426 132.59363628 121.04819384 135 124 C135 124.66 135 125.32 135 126 C135.99 126.33 136.98 126.66 138 127 C138 127.99 138 128.98 138 130 C138.66 130 139.32 130 140 130 C144.50784761 136.13439056 147.62657917 143.04362886 150.3125 150.125 C150.55452148 150.75664062 150.79654297 151.38828125 151.04589844 152.0390625 C159.2783447 174.70441525 155.03115893 197.38443928 146 219 C145.34 219 144.68 219 144 219 C143.87625 219.804375 143.7525 220.60875 143.625 221.4375 C143.315625 222.7059375 143.315625 222.7059375 143 224 C142.34 224.33 141.68 224.66 141 225 C140.67 225.99 140.34 226.98 140 228 C139.34 228 138.68 228 138 228 C137.73832031 228.5775 137.47664063 229.155 137.20703125 229.75 C134.20036413 235.35466103 129.21701275 240.42261983 124 244 C123.34 244 122.68 244 122 244 C121.67 244.99 121.34 245.98 121 247 C120.01 247 119.02 247 118 247 C118 247.66 118 248.32 118 249 C116.35 249.33 114.7 249.66 113 250 C113 250.66 113 251.32 113 252 C105.76649674 255.14446104 98.6029746 257.90220956 91 260 C89.99096619 260.33869991 88.98193237 260.67739983 87.94232178 261.02636337 C83.45498764 262.30041383 79.11097148 262.27775475 74.47363281 262.25396729 C73.53337376 262.25708727 72.5931147 262.26020725 71.62436295 262.26342177 C68.48388592 262.27137847 65.34360336 262.26508716 62.203125 262.25878906 C59.94746793 262.26149995 57.69181174 262.26506144 55.43615723 262.26940918 C49.3164401 262.27852373 43.19679044 262.27499273 37.07707214 262.26865101 C30.67149677 262.26358622 24.26592716 262.2682838 17.86035156 262.27142334 C6.41456499 262.27529459 -5.03118422 262.26908068 -16.47696447 262.25890467 C-26.84793943 262.24996957 -37.2188696 262.25152174 -47.58984375 262.26074219 C-59.642736 262.27145299 -71.69559445 262.2754251 -83.74849319 262.26951766 C-90.12526779 262.26640019 -96.50201156 262.26598253 -102.87878418 262.27259064 C-108.87387664 262.2783693 -114.86888456 262.27435756 -120.8639679 262.26280212 C-123.0637854 262.26015834 -125.26361002 262.26091582 -127.46342468 262.26532745 C-130.46692334 262.27079535 -133.47015138 262.26393348 -136.47363281 262.25396729 C-137.34338619 262.25842873 -138.21313957 262.26289017 -139.10924911 262.26748681 C-144.08823707 262.23545938 -148.22418346 261.57647186 -153 260 C-154.7325 259.62875 -154.7325 259.62875 -156.5 259.25 C-163.23103751 257.62066155 -169.61799682 254.64254819 -176 252 C-176 251.34 -176 250.68 -176 250 C-177.65 249.67 -179.3 249.34 -181 249 C-181 248.34 -181 247.68 -181 247 C-182.32 246.67 -183.64 246.34 -185 246 C-185 245.34 -185 244.68 -185 244 C-185.99 243.67 -186.98 243.34 -188 243 C-188 242.34 -188 241.68 -188 241 C-189.32 240.67 -190.64 240.34 -192 240 C-192 239.34 -192 238.68 -192 238 C-192.556875 237.79375 -193.11375 237.5875 -193.6875 237.375 C-196.97012371 235.42316968 -198.70673246 233.05769006 -201 230 C-201 229.34 -201 228.68 -201 228 C-201.66 228 -202.32 228 -203 228 C-203.33773437 227.38511719 -203.67546875 226.77023438 -204.0234375 226.13671875 C-204.46945313 225.32847656 -204.91546875 224.52023438 -205.375 223.6875 C-205.81585938 222.88699219 -206.25671875 222.08648437 -206.7109375 221.26171875 C-207.73513335 219.46472057 -208.85267138 217.72099292 -210 216 C-210 214.68 -210 213.36 -210 212 C-210.66 212 -211.32 212 -212 212 C-212.63315012 210.21119723 -213.25599879 208.41874802 -213.875 206.625 C-214.22304687 205.62726563 -214.57109375 204.62953125 -214.9296875 203.6015625 C-217.2889746 195.66264752 -218.36451833 188.08884958 -218.3125 179.8125 C-218.30903564 178.90338867 -218.30557129 177.99427734 -218.30200195 177.05761719 C-218.1240782 165.89462184 -215.85973569 155.47642545 -212 145 C-211.34 145 -210.68 145 -210 145 C-209.67 143.02 -209.34 141.04 -209 139 C-208.34 139 -207.68 139 -207 139 C-206.505 137.02 -206.505 137.02 -206 135 C-205.34 135 -204.68 135 -204 135 C-203.67 133.35 -203.34 131.7 -203 130 C-202.34 130 -201.68 130 -201 130 C-200.67 128.68 -200.34 127.36 -200 126 C-199.34 126 -198.68 126 -198 126 C-197.690625 125.195625 -197.690625 125.195625 -197.375 124.375 C-195.46749574 121.08021991 -192.95180616 118.40636372 -190 116 C-189.34 116 -188.68 116 -188 116 C-188 115.34 -188 114.68 -188 114 C-186.515 113.505 -186.515 113.505 -185 113 C-184.505 112.484375 -184.01 111.96875 -183.5 111.4375 C-182 110 -182 110 -179 110 C-179 109.34 -179 108.68 -179 108 C-166.49066672 101.45061085 -154.83662373 97.46482366 -141 95 C-141.02320313 94.43152344 -141.04640625 93.86304687 -141.0703125 93.27734375 C-141.08835937 92.50519531 -141.10640625 91.73304687 -141.125 90.9375 C-141.14820313 90.18339844 -141.17140625 89.42929688 -141.1953125 88.65234375 C-140.94352047 85.23300804 -140.01830961 82.27436254 -139 79 C-138.79729492 78.32799561 -138.59458984 77.65599121 -138.38574219 76.96362305 C-135.23829936 66.62049929 -131.57197443 57.30832178 -126 48 C-125.51015625 47.15050781 -125.0203125 46.30101562 -124.515625 45.42578125 C-123.41590429 43.57242841 -122.21942699 41.77687934 -121 40 C-120.34 40 -119.68 40 -119 40 C-118.938125 39.443125 -118.87625 38.88625 -118.8125 38.3125 C-117.66098245 35.03510391 -115.4965414 33.3804232 -113 31 C-112.0409375 29.7315625 -112.0409375 29.7315625 -111.0625 28.4375 C-108.67392391 25.61463735 -106.08769789 24.01645577 -103 22 C-102.13375 21.113125 -101.2675 20.22625 -100.375 19.3125 C-97.9784285 16.97899617 -97.1009448 16.66448817 -94 16 C-93.505 14.515 -93.505 14.515 -93 13 C-91.2578125 11.83203125 -91.2578125 11.83203125 -89.125 10.8125 C-88.07699219 10.29623047 -88.07699219 10.29623047 -87.0078125 9.76953125 C-85 9 -85 9 -82 9 C-82 8.34 -82 7.68 -82 7 C-81.04738281 6.66226562 -80.09476563 6.32453125 -79.11328125 5.9765625 C-77.8463359 5.52609304 -76.57940984 5.07556933 -75.3125 4.625 C-73.45044922 3.96371094 -73.45044922 3.96371094 -71.55078125 3.2890625 C-69.4954193 2.5428915 -67.44649196 1.77725698 -65.41796875 0.9609375 C-45.01803051 -7.14630774 -20.63886803 -7.34320911 0 0 Z " fill="#B0D8F8" transform="translate(226,8)"/>
<path d="M0 0 C0 0.66 0 1.32 0 2 C-1.57421875 3.33203125 -1.57421875 3.33203125 -3.6875 4.8125 C-7.12591024 7.31754144 -10.09225901 9.87417843 -13 13 C-13.61746094 13.64710938 -14.23492187 14.29421875 -14.87109375 14.9609375 C-19.77065564 20.2402386 -23.5587616 25.68250263 -27 32 C-27.38027344 32.67933594 -27.76054687 33.35867187 -28.15234375 34.05859375 C-36.44676351 49.61454326 -37.77633173 71.44899281 -33.9375 88.5 C-33.35152005 90.35333195 -32.69993939 92.18663389 -32 94 C-31.66137939 94.91072266 -31.66137939 94.91072266 -31.31591797 95.83984375 C-27.55282743 105.79711233 -22.81617073 113.78012807 -16 122 C-15.52175781 122.65226562 -15.04351563 123.30453125 -14.55078125 123.9765625 C-4.99053423 136.55130183 13.84643049 145.46910496 29 148 C36.64954979 148.72080192 44.35649218 148.54808125 52.03125 148.51757812 C54.33569784 148.52300706 56.64014221 148.53013402 58.94458008 148.53881836 C65.16772062 148.55696271 71.39059416 148.5500209 77.61373901 148.53730202 C84.14679651 148.52712818 90.67983216 148.53657983 97.21289062 148.54284668 C108.88224105 148.55137184 120.55147981 148.53819573 132.22081089 148.51780933 C142.77487117 148.49994133 153.32875539 148.50304637 163.8828125 148.52148438 C176.17536306 148.54294986 188.46780158 148.550827 200.76036835 148.53903532 C207.25410687 148.53282047 213.74772447 148.53190937 220.24145508 148.54518127 C226.34837834 148.55679227 232.4549713 148.54861822 238.56185913 148.52560425 C240.79421441 148.52034515 243.02659781 148.52178251 245.25894165 148.53065491 C260.9095282 148.58709147 273.77227347 147.03146331 288 140 C288.70898438 139.67 289.41796875 139.34 290.1484375 139 C294.21998549 137.06260913 297.50180345 134.88086775 301 132 C301.66 132 302.32 132 303 132 C303 131.34 303 130.68 303 130 C304.10475231 128.99458509 305.26173243 128.04636172 306.4375 127.125 C320.89988863 114.70676524 329.43623717 95.80320166 331 77 C332.08960809 57.35339851 329.11041535 39.0284909 317 23 C317 22.01 317 21.02 317 20 C317.66 20 318.32 20 319 20 C323.50784761 26.13439056 326.62657917 33.04362886 329.3125 40.125 C329.55452148 40.75664062 329.79654297 41.38828125 330.04589844 42.0390625 C338.2783447 64.70441525 334.03115893 87.38443928 325 109 C324.34 109 323.68 109 323 109 C322.87625 109.804375 322.7525 110.60875 322.625 111.4375 C322.315625 112.7059375 322.315625 112.7059375 322 114 C321.34 114.33 320.68 114.66 320 115 C319.67 115.99 319.34 116.98 319 118 C318.34 118 317.68 118 317 118 C316.73832031 118.5775 316.47664063 119.155 316.20703125 119.75 C313.20036413 125.35466103 308.21701275 130.42261983 303 134 C302.34 134 301.68 134 301 134 C300.67 134.99 300.34 135.98 300 137 C299.01 137 298.02 137 297 137 C297 137.66 297 138.32 297 139 C295.35 139.33 293.7 139.66 292 140 C292 140.66 292 141.32 292 142 C284.76649674 145.14446104 277.6029746 147.90220956 270 150 C268.48644928 150.50804987 268.48644928 150.50804987 266.94232178 151.02636337 C262.45498764 152.30041383 258.11097148 152.27775475 253.47363281 152.25396729 C252.53337376 152.25708727 251.5931147 152.26020725 250.62436295 152.26342177 C247.48388592 152.27137847 244.34360336 152.26508716 241.203125 152.25878906 C238.94746793 152.26149995 236.69181174 152.26506144 234.43615723 152.26940918 C228.3164401 152.27852373 222.19679044 152.27499273 216.07707214 152.26865101 C209.67149677 152.26358622 203.26592716 152.2682838 196.86035156 152.27142334 C185.41456499 152.27529459 173.96881578 152.26908068 162.52303553 152.25890467 C152.15206057 152.24996957 141.7811304 152.25152174 131.41015625 152.26074219 C119.357264 152.27145299 107.30440555 152.2754251 95.25150681 152.26951766 C88.87473221 152.26640019 82.49798844 152.26598253 76.12121582 152.27259064 C70.12612336 152.2783693 64.13111544 152.27435756 58.1360321 152.26280212 C55.9362146 152.26015834 53.73638998 152.26091582 51.53657532 152.26532745 C48.53307666 152.27079535 45.52984862 152.26393348 42.52636719 152.25396729 C41.65661381 152.25842873 40.78686043 152.26289017 39.89075089 152.26748681 C34.91176293 152.23545938 30.77581654 151.57647186 26 150 C24.2675 149.62875 24.2675 149.62875 22.5 149.25 C15.76896249 147.62066155 9.38200318 144.64254819 3 142 C3 141.34 3 140.68 3 140 C1.35 139.67 -0.3 139.34 -2 139 C-2 138.34 -2 137.68 -2 137 C-3.32 136.67 -4.64 136.34 -6 136 C-6 135.34 -6 134.68 -6 134 C-6.99 133.67 -7.98 133.34 -9 133 C-9 132.34 -9 131.68 -9 131 C-10.32 130.67 -11.64 130.34 -13 130 C-13 129.34 -13 128.68 -13 128 C-13.556875 127.79375 -14.11375 127.5875 -14.6875 127.375 C-17.97012371 125.42316968 -19.70673246 123.05769006 -22 120 C-22 119.34 -22 118.68 -22 118 C-22.66 118 -23.32 118 -24 118 C-24.33773438 117.38511719 -24.67546875 116.77023438 -25.0234375 116.13671875 C-25.46945313 115.32847656 -25.91546875 114.52023438 -26.375 113.6875 C-26.81585938 112.88699219 -27.25671875 112.08648437 -27.7109375 111.26171875 C-28.73513335 109.46472057 -29.85267138 107.72099292 -31 106 C-31 104.68 -31 103.36 -31 102 C-31.66 102 -32.32 102 -33 102 C-33.63315012 100.21119723 -34.25599879 98.41874802 -34.875 96.625 C-35.22304688 95.62726563 -35.57109375 94.62953125 -35.9296875 93.6015625 C-38.2889746 85.66264752 -39.36451833 78.08884958 -39.3125 69.8125 C-39.30903564 68.90338867 -39.30557129 67.99427734 -39.30200195 67.05761719 C-39.1240782 55.89462184 -36.85973569 45.47642545 -33 35 C-32.34 35 -31.68 35 -31 35 C-30.505 32.03 -30.505 32.03 -30 29 C-29.34 29 -28.68 29 -28 29 C-27.67 27.68 -27.34 26.36 -27 25 C-26.34 25 -25.68 25 -25 25 C-24.67 23.35 -24.34 21.7 -24 20 C-23.34 20 -22.68 20 -22 20 C-21.67 18.68 -21.34 17.36 -21 16 C-20.34 16 -19.68 16 -19 16 C-18.690625 15.195625 -18.690625 15.195625 -18.375 14.375 C-16.46749574 11.08021991 -13.95180616 8.40636372 -11 6 C-10.34 6 -9.68 6 -9 6 C-9 5.34 -9 4.68 -9 4 C-8.01 3.67 -7.02 3.34 -6 3 C-5.505 2.484375 -5.01 1.96875 -4.5 1.4375 C-3 0 -3 0 0 0 Z " fill="#E1F7FE" transform="translate(47,118)"/>
<path d="M0 0 C0 0.66 0 1.32 0 2 C0.66 2 1.32 2 2 2 C2.75989687 35.33803944 2.75989687 35.33803944 -4 45 C-4.66 45 -5.32 45 -6 45 C-6.33 45.99 -6.66 46.98 -7 48 C-12.26854037 51.42455124 -18.0514287 52.562123 -24.25 51.6796875 C-27.63266772 50.89620196 -30.09877137 49.93415242 -33 48 C-33 47.34 -33 46.68 -33 46 C-33.66 46 -34.32 46 -35 46 C-38.40543251 39.13067262 -40.04521598 33.55557494 -38 26 C-35.94669176 22.03499099 -34.27650657 19.52732377 -30 18 C-30 17.34 -30 16.68 -30 16 C-28.68 15.67 -27.36 15.34 -26 15 C-26 14.34 -26 13.68 -26 13 C-24.35 12.67 -22.7 12.34 -21 12 C-21 11.34 -21 10.68 -21 10 C-19.68 9.67 -18.36 9.34 -17 9 C-17 8.34 -17 7.68 -17 7 C-13.70450534 5.27735506 -10.66881155 3.70554068 -7 3 C-7 2.34 -7 1.68 -7 1 C-4.53721199 -0.231394 -2.7204945 -0.07159196 0 0 Z " fill="#CAE7FA" transform="translate(178,276)"/>
<path d="M0 0 C1.11375 0.556875 1.11375 0.556875 2.25 1.125 C2.61141993 10.46837453 2.16103414 19.48023912 0.9375 28.75 C0.76093872 30.15306396 0.76093872 30.15306396 0.58081055 31.58447266 C-0.31033573 37.90060728 -1.44543953 43.8071261 -6.75 47.9375 C-11.22315937 51.19917871 -14.32750264 51.26129687 -19.75 51.25 C-20.9875 51.25257813 -22.225 51.25515625 -23.5 51.2578125 C-26.75 51.125 -26.75 51.125 -29.75 50.125 C-29.75 49.465 -29.75 48.805 -29.75 48.125 C-30.348125 48.021875 -30.94625 47.91875 -31.5625 47.8125 C-34.75063842 46.81051364 -36.12023579 45.17230018 -37.81640625 42.3515625 C-39.99651262 37.15214564 -39.56147261 30.39187347 -37.5 25.1875 C-35.83319313 22.27058798 -34.35938736 20.22934464 -31.75 18.125 C-31.09 18.125 -30.43 18.125 -29.75 18.125 C-29.75 17.465 -29.75 16.805 -29.75 16.125 C-24.45588235 12.125 -24.45588235 12.125 -20.75 12.125 C-20.75 11.465 -20.75 10.805 -20.75 10.125 C-19.43 9.795 -18.11 9.465 -16.75 9.125 C-16.75 8.465 -16.75 7.805 -16.75 7.125 C-14.703125 5.6875 -14.703125 5.6875 -12 4.125 C-10.67742187 3.3515625 -10.67742187 3.3515625 -9.328125 2.5625 C-8.47734375 2.088125 -7.6265625 1.61375 -6.75 1.125 C-6.08484375 0.691875 -5.4196875 0.25875 -4.734375 -0.1875 C-2.75 -0.875 -2.75 -0.875 0 0 Z " fill="#C5E6FA" transform="translate(212.75,332.875)"/>
<path d="M0 0 C0.78375 0.2475 1.5675 0.495 2.375 0.75 C5.95582359 7.91164718 3.08063915 19.87722118 2.1875 27.5625 C2.08663086 28.54049561 1.98576172 29.51849121 1.88183594 30.52612305 C0.89877483 38.30913179 -1.46204931 43.81297436 -7.25 49.1875 C-13.03249762 52.99177475 -19.95767317 52.29474132 -26.625 51.75 C-32.04825601 49.31888524 -35.22554439 45.36526032 -37.375 39.8125 C-38.12492441 33.62562358 -37.60206648 29.29350311 -34.625 23.75 C-32.125 21 -32.125 21 -29.625 18.75 C-29.068125 18.151875 -28.51125 17.55375 -27.9375 16.9375 C-26.625 15.75 -26.625 15.75 -24.625 15.75 C-24.625 15.09 -24.625 14.43 -24.625 13.75 C-23.635 13.42 -22.645 13.09 -21.625 12.75 C-21.13 12.234375 -20.635 11.71875 -20.125 11.1875 C-18.625 9.75 -18.625 9.75 -15.625 9.75 C-15.625 9.09 -15.625 8.43 -15.625 7.75 C-13.54296875 6.3125 -13.54296875 6.3125 -10.8125 4.75 C-2.21727468 -0.21116902 -2.21727468 -0.21116902 0 0 Z " fill="#CAE9FB" transform="translate(314.625,275.25)"/>
<path d="M0 0 C2.375 0.6875 2.375 0.6875 3.375 1.6875 C3.47438863 3.45603292 3.50469223 5.22868275 3.5 7 C3.50386719 8.44826172 3.50386719 8.44826172 3.5078125 9.92578125 C3.375 12.6875 3.375 12.6875 2.890625 14.53125 C2.24722079 17.2218494 2.18650164 19.87135695 2.08496094 22.62768555 C1.70122673 32.7778963 0.96006935 41.27882761 -6.625 48.6875 C-12.1917278 52.86254585 -18.9729734 52.43382494 -25.625 51.6875 C-30.06176937 50.28206374 -33.55613149 48.20871618 -36.625 44.6875 C-38.46715805 39.16102586 -38.65816553 32.6516474 -36.73046875 27.12109375 C-35.625 24.9375 -35.625 24.9375 -33.625 21.6875 C-32.965 21.6875 -32.305 21.6875 -31.625 21.6875 C-31.625 21.0275 -31.625 20.3675 -31.625 19.6875 C-29.5078125 17.9609375 -29.5078125 17.9609375 -26.75 16.0625 C-25.84507812 15.43085938 -24.94015625 14.79921875 -24.0078125 14.1484375 C-21.625 12.6875 -21.625 12.6875 -19.625 12.6875 C-19.625 12.0275 -19.625 11.3675 -19.625 10.6875 C-17.38170604 9.09911749 -15.14797625 7.6279021 -12.8125 6.1875 C-11.53512919 5.38545976 -10.25778455 4.58337785 -8.98046875 3.78125 C-7.31951172 2.74484375 -7.31951172 2.74484375 -5.625 1.6875 C-2.625 -0.3125 -2.625 -0.3125 0 0 Z " fill="#C8E7FA" transform="translate(280.625,332.3125)"/>
<path d="M0 0 C4.70588235 0.70588235 4.70588235 0.70588235 6 2 C6.10246001 4.76039315 6.14169256 7.4896074 6.125 10.25 C6.12016602 11.0661377 6.11533203 11.88227539 6.11035156 12.72314453 C5.83842162 40.43280577 5.83842162 40.43280577 -2.0625 48.6875 C-6.48770309 52.17117051 -9.79729553 52.20885125 -15.3125 52.3125 C-16.60800781 52.34988281 -17.90351562 52.38726562 -19.23828125 52.42578125 C-24.8158979 51.79446223 -27.80564417 49.45259493 -31.3125 45.1875 C-33.17373065 41.6718421 -33.63542102 38.93745296 -34 35 C-34.19464844 34.35289062 -34.38929687 33.70578125 -34.58984375 33.0390625 C-35.33106129 29.35415246 -33.73991941 26.22084319 -32 23 C-29.5 20.6875 -29.5 20.6875 -27 19 C-26.505 18.484375 -26.01 17.96875 -25.5 17.4375 C-23.08117297 15.11945743 -20.42726284 13 -17 13 C-17 12.34 -17 11.68 -17 11 C-11.70588235 7 -11.70588235 7 -8 7 C-8 6.34 -8 5.68 -8 5 C-6.20963542 3.99088542 -4.41927083 2.98177083 -2.62890625 1.97265625 C-1.02121854 1.1027487 -1.02121854 1.1027487 0 0 Z " fill="#C6E4F9" transform="translate(140,332)"/>
<path d="M0 0 C0.60457031 0.35191406 1.20914063 0.70382812 1.83203125 1.06640625 C2.67917401 32.48454169 2.67917401 32.48454169 -4.16796875 45.06640625 C-4.82796875 45.06640625 -5.48796875 45.06640625 -6.16796875 45.06640625 C-6.49796875 46.05640625 -6.82796875 47.04640625 -7.16796875 48.06640625 C-12.57353953 52.01101195 -18.75995315 51.86113403 -25.16796875 51.06640625 C-28.16010361 50.00955128 -30.4451897 48.74196259 -33.16796875 47.06640625 C-33.16796875 46.40640625 -33.16796875 45.74640625 -33.16796875 45.06640625 C-33.82796875 45.06640625 -34.48796875 45.06640625 -35.16796875 45.06640625 C-35.49796875 43.08640625 -35.82796875 41.10640625 -36.16796875 39.06640625 C-36.82796875 39.06640625 -37.48796875 39.06640625 -38.16796875 39.06640625 C-38.74277656 25.90969425 -38.74277656 25.90969425 -35.16796875 21.06640625 C-32.97229009 18.87072759 -30.73958929 16.81386888 -28.16796875 15.06640625 C-27.50796875 15.06640625 -26.84796875 15.06640625 -26.16796875 15.06640625 C-26.16796875 14.40640625 -26.16796875 13.74640625 -26.16796875 13.06640625 C-20.8738511 9.06640625 -20.8738511 9.06640625 -17.16796875 9.06640625 C-17.16796875 8.40640625 -17.16796875 7.74640625 -17.16796875 7.06640625 C-14.96877515 5.82997074 -12.76585898 4.60164814 -10.5546875 3.38671875 C-8.63992771 2.32748993 -6.74430602 1.23369786 -4.85546875 0.12890625 C-2.16796875 -0.93359375 -2.16796875 -0.93359375 0 0 Z " fill="#C6E7FA" transform="translate(247.16796875,275.93359375)"/>
<path d="M0 0 C0.02892857 3.95831809 0.04677427 7.91660917 0.0625 11.875 C0.07087891 13.00292969 0.07925781 14.13085938 0.08789062 15.29296875 C0.09111328 16.36933594 0.09433594 17.44570313 0.09765625 18.5546875 C0.10289307 19.54968262 0.10812988 20.54467773 0.11352539 21.56982422 C0 24 0 24 -1 26 C-1.29101961 28.2474782 -1.55832504 30.49805733 -1.8125 32.75 C-2.83093853 40.07377121 -4.06223551 43.34884668 -9.5625 48.3125 C-14.84085866 51.96674831 -20.80889563 51.68964201 -27 51 C-31.62319453 49.29749027 -34.31091514 47.08919864 -36.9375 42.9375 C-37.288125 41.968125 -37.63875 40.99875 -38 40 C-38.226875 39.38125 -38.45375 38.7625 -38.6875 38.125 C-39.85507318 30.18550236 -38.63528312 24.78821949 -34 18.125 C-32 16 -32 16 -29 15 C-28.505 14.484375 -28.01 13.96875 -27.5 13.4375 C-26 12 -26 12 -23 12 C-23 11.34 -23 10.68 -23 10 C-21.68 9.67 -20.36 9.34 -19 9 C-19 8.34 -19 7.68 -19 7 C-17.35 6.67 -15.7 6.34 -14 6 C-14 5.34 -14 4.68 -14 4 C-8.90045061 0.66968203 -6.24717529 -0.23998753 0 0 Z " fill="#C5E5FA" transform="translate(111,276)"/>
<path d="M0 0 C0.33 0 0.66 0 1 0 C1.33 4.29 1.66 8.58 2 13 C2.66 13 3.32 13 4 13 C4.69644521 38.80716431 -2.93381902 58.97970152 -20.65234375 77.8203125 C-23 80 -23 80 -25 80 C-25 80.66 -25 81.32 -25 82 C-34.81655978 90.4537402 -46.71988178 94.56358832 -59 98 C-59.63348571 98.17860963 -60.26697141 98.35721925 -60.91965365 98.54124129 C-63.05797921 99.0127856 -64.94584292 99.12980086 -67.13319778 99.13701439 C-67.95337615 99.14208893 -68.77355452 99.14716347 -69.61858678 99.15239179 C-70.96213455 99.15313843 -70.96213455 99.15313843 -72.33282471 99.15390015 C-73.28867171 99.1582824 -74.24451871 99.16266465 -75.22933078 99.1671797 C-78.44097512 99.18056289 -81.65259201 99.18674564 -84.86425781 99.19287109 C-87.16398238 99.20077276 -89.46370571 99.20904175 -91.76342773 99.21765137 C-99.32664811 99.24387524 -106.88987401 99.25918451 -114.453125 99.2734375 C-117.05923211 99.278798 -119.66533919 99.28417551 -122.27144623 99.28956985 C-133.11804882 99.31120368 -143.9646491 99.33008842 -154.81126785 99.34119225 C-157.62515517 99.34412166 -160.43904246 99.34708335 -163.25292969 99.35009766 C-164.30191886 99.35121673 -164.30191886 99.35121673 -165.37209973 99.35235842 C-176.67753499 99.36498712 -187.9828121 99.39817691 -199.28817359 99.43989949 C-210.91394901 99.48244996 -222.53963544 99.50549592 -234.165488 99.51111281 C-240.68522031 99.51475703 -247.2046848 99.52667897 -253.72434235 99.55921555 C-259.86725467 99.58943089 -266.00973905 99.59555988 -272.15270996 99.58383179 C-274.39713898 99.58361214 -276.64158863 99.59182565 -278.88594818 99.60948563 C-302.69126033 99.78647288 -323.24211289 94.01633948 -340.9921875 77.1015625 C-346.31976493 71.28296411 -350.60764748 64.53374887 -355 58 C-354.67 57.34 -354.34 56.68 -354 56 C-351.69 56 -349.38 56 -347 56 C-347.020625 57.0725 -347.04125 58.145 -347.0625 59.25 C-347.0142016 62.14790424 -346.86844115 64.28612141 -346 67 C-345.34 67 -344.68 67 -344 67 C-344 67.66 -344 68.32 -344 69 C-343.4225 69.04125 -342.845 69.0825 -342.25 69.125 C-338.89805721 70.42853331 -337.88877046 73.04092628 -336 76 C-335.34 76 -334.68 76 -334 76 C-334 77.32 -334 78.64 -334 80 C-332.68 80 -331.36 80 -330 80 C-330 80.66 -330 81.32 -330 82 C-328.865625 82.268125 -327.73125 82.53625 -326.5625 82.8125 C-325.386875 83.204375 -324.21125 83.59625 -323 84 C-322.67 84.99 -322.34 85.98 -322 87 C-320.741875 87.165 -319.48375 87.33 -318.1875 87.5 C-317.47980469 87.5928125 -316.77210938 87.685625 -316.04296875 87.78125 C-313.84528294 88.053233 -313.84528294 88.053233 -311 88 C-311 88.99 -311 89.98 -311 91 C-310.01 91 -309.02 91 -308 91 C-307.67 91.99 -307.34 92.98 -307 94 C-304.03 94.33 -301.06 94.66 -298 95 C-298 95.66 -298 96.32 -298 97 C-295.03 96.505 -295.03 96.505 -292 96 C-292 96.66 -292 97.32 -292 98 C-290.70271438 97.83720267 -289.40542875 97.67440535 -288.06883144 97.50667477 C-283.32692026 96.98258901 -278.66537553 96.86758281 -273.8986969 96.89320374 C-273.02826608 96.89376044 -272.15783526 96.89431715 -271.26102775 96.89489073 C-268.36873209 96.89790644 -265.47650729 96.90807644 -262.58422852 96.91821289 C-260.50063143 96.92177223 -258.4170335 96.92485733 -256.33343506 96.92750549 C-251.85806319 96.93403973 -247.38271155 96.94358829 -242.90735054 96.95540047 C-235.82584701 96.97374136 -228.7443483 96.98330496 -221.66282654 96.99131775 C-201.52967189 97.01543323 -181.39654703 97.05134082 -161.26342773 97.09594727 C-150.13524614 97.12052509 -139.00707616 97.13786865 -127.87887138 97.14750665 C-120.84423242 97.15403533 -113.80968955 97.16956412 -106.77508366 97.19182408 C-102.39336749 97.20358377 -98.01167444 97.20692319 -93.62994385 97.20792198 C-91.60392015 97.21006286 -89.57789662 97.21563173 -87.55189323 97.2249527 C-84.77727734 97.23721998 -82.00292195 97.23697231 -79.22828674 97.23377991 C-78.43478225 97.24028771 -77.64127775 97.24679551 -76.82372767 97.25350052 C-71.78742242 97.23109057 -67.16318315 96.55767986 -62.25369304 95.42928118 C-60 95 -60 95 -56 95 C-56 94.01 -56 93.02 -56 92 C-55.27941406 91.87496094 -54.55882812 91.74992187 -53.81640625 91.62109375 C-51.02683725 91.00591834 -48.57778724 90.14391595 -45.9375 89.0625 C-45.10089844 88.72347656 -44.26429688 88.38445312 -43.40234375 88.03515625 C-38.45302332 86.00667809 -38.45302332 86.00667809 -35 82 C-35 81.34 -35 80.68 -35 80 C-32.36 80 -29.72 80 -27 80 C-26.5875 79.05125 -26.175 78.1025 -25.75 77.125 C-24 74 -24 74 -21.9375 73 C-19.63648409 72.0801221 -19.63648409 72.0801221 -18.75 68.875 C-18.37875 67.451875 -18.37875 67.451875 -18 66 C-17.34 66 -16.68 66 -16 66 C-16 65.34 -16 64.68 -16 64 C-15.22011719 63.94714844 -14.44023437 63.89429688 -13.63671875 63.83984375 C-10.77876559 63.26789795 -10.77876559 63.26789795 -9.70703125 60.56640625 C-9.41183594 59.57511719 -9.11664063 58.58382812 -8.8125 57.5625 C-7.15601504 52.15601504 -7.15601504 52.15601504 -5 50 C-4.28591666 48.01643517 -3.61382258 46.01684563 -3 44 C-2.34 44 -1.68 44 -1 44 C-1.185625 42.948125 -1.37125 41.89625 -1.5625 40.8125 C-2 37 -2 37 -1.53125 34.71875 C-0.86946835 31.33198507 -0.90527413 28.1356676 -0.9375 24.6875 C-0.95103516 22.80611328 -0.95103516 22.80611328 -0.96484375 20.88671875 C-0.97644531 19.93410156 -0.98804688 18.98148438 -1 18 C-0.34 18 0.32 18 1 18 C0.67 17.01 0.34 16.02 0 15 C-0.66 15.33 -1.32 15.66 -2 16 C-1.34 10.72 -0.68 5.44 0 0 Z " fill="#90BAE2" transform="translate(375,168)"/>
<path d="M0 0 C0 0.66 0 1.32 0 2 C-1.57421875 3.33203125 -1.57421875 3.33203125 -3.6875 4.8125 C-7.12591024 7.31754144 -10.09225901 9.87417843 -13 13 C-13.61746094 13.64710938 -14.23492187 14.29421875 -14.87109375 14.9609375 C-19.77065564 20.2402386 -23.5587616 25.68250263 -27 32 C-27.38027344 32.67933594 -27.76054687 33.35867187 -28.15234375 34.05859375 C-36.44676351 49.61454326 -37.77633173 71.44899281 -33.9375 88.5 C-33.35152005 90.35333195 -32.69993939 92.18663389 -32 94 C-31.66137939 94.91072266 -31.66137939 94.91072266 -31.31591797 95.83984375 C-27.55282743 105.79711233 -22.81617073 113.78012807 -16 122 C-15.52175781 122.65226562 -15.04351563 123.30453125 -14.55078125 123.9765625 C-4.98016607 136.56493922 13.83876443 145.44055362 29 148 C36.50916598 148.72304504 44.07551254 148.56530112 51.61083984 148.54589844 C53.86904101 148.55464671 56.12723599 148.56513683 58.38542175 148.57722473 C64.4774235 148.60495147 70.56922164 148.60849236 76.66127729 148.60750484 C83.04210374 148.61064542 89.42284002 148.63628743 95.80361938 148.65948486 C106.50092431 148.69537018 117.19815488 148.7175269 127.89550781 148.72900391 C138.90693602 148.74085591 149.91829689 148.76109777 160.9296875 148.79248047 C161.61003136 148.79441657 162.29037522 148.79635267 162.99133556 148.79834744 C166.40489939 148.80811295 169.81846273 148.81804189 173.23202586 148.82805204 C201.487984 148.91070076 229.74394598 148.96449994 258 149 C258 149.33 258 149.66 258 150 C257.02799747 150.00423194 256.05599493 150.00846388 255.05453777 150.01282406 C231.33078492 150.11632331 207.60706072 150.22510888 183.88335705 150.33933926 C172.41044765 150.3944611 160.93753515 150.44790683 149.46459961 150.49731445 C139.45705148 150.54041581 129.4495243 150.58675606 119.44200879 150.63687855 C114.15017561 150.66327235 108.85834601 150.68811702 103.56648827 150.70907402 C98.5703416 150.72891135 93.57423403 150.75312816 88.57812309 150.78049088 C86.75908379 150.78972019 84.94003602 150.79744353 83.12098312 150.80341911 C72.4619733 150.83946565 61.85850419 151.13556317 51.21762562 151.77015781 C33.74086846 152.78671264 33.74086846 152.78671264 26 150 C24.2675 149.62875 24.2675 149.62875 22.5 149.25 C15.76896249 147.62066155 9.38200318 144.64254819 3 142 C3 141.34 3 140.68 3 140 C1.35 139.67 -0.3 139.34 -2 139 C-2 138.34 -2 137.68 -2 137 C-3.32 136.67 -4.64 136.34 -6 136 C-6 135.34 -6 134.68 -6 134 C-6.99 133.67 -7.98 133.34 -9 133 C-9 132.34 -9 131.68 -9 131 C-10.32 130.67 -11.64 130.34 -13 130 C-13 129.34 -13 128.68 -13 128 C-13.556875 127.79375 -14.11375 127.5875 -14.6875 127.375 C-17.97012371 125.42316968 -19.70673246 123.05769006 -22 120 C-22 119.34 -22 118.68 -22 118 C-22.66 118 -23.32 118 -24 118 C-24.33773438 117.38511719 -24.67546875 116.77023438 -25.0234375 116.13671875 C-25.46945313 115.32847656 -25.91546875 114.52023438 -26.375 113.6875 C-26.81585938 112.88699219 -27.25671875 112.08648437 -27.7109375 111.26171875 C-28.73513335 109.46472057 -29.85267138 107.72099292 -31 106 C-31 104.68 -31 103.36 -31 102 C-31.66 102 -32.32 102 -33 102 C-33.63315012 100.21119723 -34.25599879 98.41874802 -34.875 96.625 C-35.22304688 95.62726563 -35.57109375 94.62953125 -35.9296875 93.6015625 C-38.2889746 85.66264752 -39.36451833 78.08884958 -39.3125 69.8125 C-39.30903564 68.90338867 -39.30557129 67.99427734 -39.30200195 67.05761719 C-39.1240782 55.89462184 -36.85973569 45.47642545 -33 35 C-32.34 35 -31.68 35 -31 35 C-30.505 32.03 -30.505 32.03 -30 29 C-29.34 29 -28.68 29 -28 29 C-27.67 27.68 -27.34 26.36 -27 25 C-26.34 25 -25.68 25 -25 25 C-24.67 23.35 -24.34 21.7 -24 20 C-23.34 20 -22.68 20 -22 20 C-21.67 18.68 -21.34 17.36 -21 16 C-20.34 16 -19.68 16 -19 16 C-18.690625 15.195625 -18.690625 15.195625 -18.375 14.375 C-16.46749574 11.08021991 -13.95180616 8.40636372 -11 6 C-10.34 6 -9.68 6 -9 6 C-9 5.34 -9 4.68 -9 4 C-8.01 3.67 -7.02 3.34 -6 3 C-5.505 2.484375 -5.01 1.96875 -4.5 1.4375 C-3 0 -3 0 0 0 Z " fill="#D2E9FB" transform="translate(47,118)"/>
<path d="M0 0 C1.05960938 0.35320313 2.11921875 0.70640625 3.2109375 1.0703125 C6.140625 2.046875 9.0703125 3.0234375 12 4 C12 4.99 12 5.98 12 7 C10.98679688 6.69255859 10.98679688 6.69255859 9.953125 6.37890625 C9.06109375 6.10949219 8.1690625 5.84007812 7.25 5.5625 C6.36828125 5.29566406 5.4865625 5.02882813 4.578125 4.75390625 C2.39434165 4.11531506 0.21164502 3.53224167 -2 3 C-2 2.34 -2 1.68 -2 1 C-3.093125 1.020625 -4.18625 1.04125 -5.3125 1.0625 C-10.55532699 1.0625 -15.80788622 0.7391234 -21 0 C-21.33 -0.33 -21.66 -0.66 -22 -1 C-35.07478992 -1.84543754 -48.73209708 -0.71251386 -61 4 C-63.33333333 4.66666667 -65.66666667 5.33333333 -68 6 C-69.60757929 6.48891668 -71.21168435 6.989373 -72.8125 7.5 C-73.56144531 7.7371875 -74.31039062 7.974375 -75.08203125 8.21875 C-77.19250837 8.93376395 -77.19250837 8.93376395 -79 11 C-80.010625 11.495 -81.02125 11.99 -82.0625 12.5 C-85.08606682 13.67780112 -85.08606682 13.67780112 -86 16 C-89.12089239 17.70906012 -92.24202765 19.09341418 -95.5625 20.375 C-99.92370107 22.43665869 -102.45190412 25.27327767 -105.625 28.8125 C-107 30 -107 30 -110 30 C-110.37125 30.804375 -110.37125 30.804375 -110.75 31.625 C-112.30652537 34.5823982 -114.03435673 37.29724051 -116 40 C-116.66 40 -117.32 40 -118 40 C-118.309375 40.94875 -118.61875 41.8975 -118.9375 42.875 C-120 46 -120 46 -121 48 C-121.99 48 -122.98 48 -124 48 C-124.0928125 49.2375 -124.0928125 49.2375 -124.1875 50.5 C-124.93142418 53.70459645 -125.53353807 55.01658342 -127.3125 57.625 C-135.1183801 69.50253514 -136.61795567 85.26821502 -139 99 C-140.23234375 99.15855469 -141.4646875 99.31710938 -142.734375 99.48046875 C-154.01883621 101.03300969 -163.35900049 103.62124586 -173.5625 108.8125 C-176 110 -176 110 -179 110 C-179 109.34 -179 108.68 -179 108 C-166.49066672 101.45061085 -154.83662373 97.46482366 -141 95 C-141.02320313 94.43152344 -141.04640625 93.86304687 -141.0703125 93.27734375 C-141.08835938 92.50519531 -141.10640625 91.73304687 -141.125 90.9375 C-141.14820313 90.18339844 -141.17140625 89.42929688 -141.1953125 88.65234375 C-140.94352047 85.23300804 -140.01830961 82.27436254 -139 79 C-138.79729492 78.32799561 -138.59458984 77.65599121 -138.38574219 76.96362305 C-135.23829936 66.62049929 -131.57197443 57.30832178 -126 48 C-125.26523438 46.72576172 -125.26523438 46.72576172 -124.515625 45.42578125 C-123.41590429 43.57242841 -122.21942699 41.77687934 -121 40 C-120.34 40 -119.68 40 -119 40 C-118.938125 39.443125 -118.87625 38.88625 -118.8125 38.3125 C-117.66098245 35.03510391 -115.4965414 33.3804232 -113 31 C-112.0409375 29.7315625 -112.0409375 29.7315625 -111.0625 28.4375 C-108.67392391 25.61463735 -106.08769789 24.01645577 -103 22 C-102.13375 21.113125 -101.2675 20.22625 -100.375 19.3125 C-97.9784285 16.97899617 -97.1009448 16.66448817 -94 16 C-93.505 14.515 -93.505 14.515 -93 13 C-91.2578125 11.83203125 -91.2578125 11.83203125 -89.125 10.8125 C-88.07699219 10.29623047 -88.07699219 10.29623047 -87.0078125 9.76953125 C-85 9 -85 9 -82 9 C-82 8.34 -82 7.68 -82 7 C-81.04738281 6.66226562 -80.09476562 6.32453125 -79.11328125 5.9765625 C-77.8463359 5.52609304 -76.57940984 5.07556933 -75.3125 4.625 C-73.45044922 3.96371094 -73.45044922 3.96371094 -71.55078125 3.2890625 C-69.4954193 2.5428915 -67.44649196 1.77725698 -65.41796875 0.9609375 C-45.01803051 -7.14630774 -20.63886803 -7.34320911 0 0 Z " fill="#E5F4FD" transform="translate(226,8)"/>
<path d="M0 0 C0.33 0 0.66 0 1 0 C1.495 6.435 1.495 6.435 2 13 C2.66 13 3.32 13 4 13 C4.69644521 38.80716431 -2.93381902 58.97970152 -20.65234375 77.8203125 C-23 80 -23 80 -25 80 C-25 80.66 -25 81.32 -25 82 C-32.30761937 88.29311256 -41.43952617 93.38656276 -51 95 C-51 94.34 -51 93.68 -51 93 C-49.3767313 92.3291288 -47.75132422 91.66342971 -46.125 91 C-45.22007812 90.62875 -44.31515625 90.2575 -43.3828125 89.875 C-41 89 -41 89 -39 89 C-38.71125 88.401875 -38.4225 87.80375 -38.125 87.1875 C-37 85 -37 85 -35 82 C-35 81.34 -35 80.68 -35 80 C-32.36 80 -29.72 80 -27 80 C-26.5875 79.05125 -26.175 78.1025 -25.75 77.125 C-24 74 -24 74 -21.9375 73 C-19.63648409 72.0801221 -19.63648409 72.0801221 -18.75 68.875 C-18.5025 67.92625 -18.255 66.9775 -18 66 C-17.34 66 -16.68 66 -16 66 C-16 65.34 -16 64.68 -16 64 C-15.22011719 63.94714844 -14.44023437 63.89429688 -13.63671875 63.83984375 C-10.77876559 63.26789795 -10.77876559 63.26789795 -9.70703125 60.56640625 C-9.41183594 59.57511719 -9.11664063 58.58382812 -8.8125 57.5625 C-7.15601504 52.15601504 -7.15601504 52.15601504 -5 50 C-4.28591666 48.01643517 -3.61382258 46.01684563 -3 44 C-2.34 44 -1.68 44 -1 44 C-1.2784375 42.4221875 -1.2784375 42.4221875 -1.5625 40.8125 C-2 37 -2 37 -1.53125 34.71875 C-0.86946835 31.33198507 -0.90527413 28.1356676 -0.9375 24.6875 C-0.94652344 23.43324219 -0.95554687 22.17898437 -0.96484375 20.88671875 C-0.97644531 19.93410156 -0.98804688 18.98148438 -1 18 C-0.34 18 0.32 18 1 18 C0.505 16.515 0.505 16.515 0 15 C-0.66 15.33 -1.32 15.66 -2 16 C-1.34 10.72 -0.68 5.44 0 0 Z " fill="#95BEE2" transform="translate(375,168)"/>
<path d="M0 0 C1.11375 0.556875 1.11375 0.556875 2.25 1.125 C2.61141993 10.46837453 2.16103414 19.48023912 0.9375 28.75 C0.76093872 30.15306396 0.76093872 30.15306396 0.58081055 31.58447266 C-0.31033573 37.90060728 -1.44543953 43.8071261 -6.75 47.9375 C-11.22315937 51.19917871 -14.32750264 51.26129687 -19.75 51.25 C-20.9875 51.25257813 -22.225 51.25515625 -23.5 51.2578125 C-26.75 51.125 -26.75 51.125 -29.75 50.125 C-29.75 49.465 -29.75 48.805 -29.75 48.125 C-28.88117188 48.22039062 -28.01234375 48.31578125 -27.1171875 48.4140625 C-25.96476563 48.52492188 -24.81234375 48.63578125 -23.625 48.75 C-22.48804688 48.86601562 -21.35109375 48.98203125 -20.1796875 49.1015625 C-15.37481436 49.13439762 -12.01917128 48.32366177 -8.5 45 C-7.63375 44.071875 -7.63375 44.071875 -6.75 43.125 C-6.09 43.125 -5.43 43.125 -4.75 43.125 C-4.605625 42.17625 -4.46125 41.2275 -4.3125 40.25 C-3.75 37.125 -3.75 37.125 -2.75 35.125 C-1.67654824 27.98102395 -1.48104226 20.70862803 -1.1875 13.5 C-1.12272461 11.99373047 -1.12272461 11.99373047 -1.05664062 10.45703125 C-0.95190141 8.01311617 -0.84972744 5.56912383 -0.75 3.125 C-5.53844185 4.77102689 -9.52624288 7.39748156 -13.75 10.125 C-18.01557177 12.87952051 -22.00365149 15.27670549 -26.75 17.125 C-27.85836423 19.00816159 -27.85836423 19.00816159 -28.75 21.125 C-29.37648437 21.69992187 -30.00296875 22.27484375 -30.6484375 22.8671875 C-34.56858587 27.07879672 -36.02549902 32.49670075 -36.75 38.125 C-35.68791346 41.40644664 -34.02789785 43.57990005 -31.75 46.125 C-31.42 46.785 -31.09 47.445 -30.75 48.125 C-35.04245529 46.59198025 -36.76922537 44.1572912 -38.75 40.125 C-39.65972582 33.48700058 -39.07319076 27.94058383 -35.75 22.125 C-33.6875 19.6875 -33.6875 19.6875 -31.75 18.125 C-31.09 18.125 -30.43 18.125 -29.75 18.125 C-29.75 17.465 -29.75 16.805 -29.75 16.125 C-24.45588235 12.125 -24.45588235 12.125 -20.75 12.125 C-20.75 11.465 -20.75 10.805 -20.75 10.125 C-19.43 9.795 -18.11 9.465 -16.75 9.125 C-16.75 8.465 -16.75 7.805 -16.75 7.125 C-14.703125 5.6875 -14.703125 5.6875 -12 4.125 C-10.67742187 3.3515625 -10.67742187 3.3515625 -9.328125 2.5625 C-8.47734375 2.088125 -7.6265625 1.61375 -6.75 1.125 C-6.08484375 0.691875 -5.4196875 0.25875 -4.734375 -0.1875 C-2.75 -0.875 -2.75 -0.875 0 0 Z " fill="#E5F2FC" transform="translate(212.75,332.875)"/>
<path d="M0 0 C0.60457031 0.35191406 1.20914063 0.70382812 1.83203125 1.06640625 C2.67917401 32.48454169 2.67917401 32.48454169 -4.16796875 45.06640625 C-4.82796875 45.06640625 -5.48796875 45.06640625 -6.16796875 45.06640625 C-6.49796875 46.05640625 -6.82796875 47.04640625 -7.16796875 48.06640625 C-12.57353953 52.01101195 -18.75995315 51.86113403 -25.16796875 51.06640625 C-28.16010361 50.00955128 -30.4451897 48.74196259 -33.16796875 47.06640625 C-33.16796875 46.40640625 -33.16796875 45.74640625 -33.16796875 45.06640625 C-33.82796875 45.06640625 -34.48796875 45.06640625 -35.16796875 45.06640625 C-35.49796875 43.74640625 -35.82796875 42.42640625 -36.16796875 41.06640625 C-35.17796875 41.39640625 -34.18796875 41.72640625 -33.16796875 42.06640625 C-33.16796875 42.72640625 -33.16796875 43.38640625 -33.16796875 44.06640625 C-32.17796875 44.39640625 -31.18796875 44.72640625 -30.16796875 45.06640625 C-29.83796875 45.72640625 -29.50796875 46.38640625 -29.16796875 47.06640625 C-21.91498749 48.54660651 -15.12677468 48.84992862 -8.16796875 46.06640625 C-8.16796875 45.40640625 -8.16796875 44.74640625 -8.16796875 44.06640625 C-7.50796875 44.06640625 -6.84796875 44.06640625 -6.16796875 44.06640625 C-6.16796875 43.40640625 -6.16796875 42.74640625 -6.16796875 42.06640625 C-5.50796875 42.06640625 -4.84796875 42.06640625 -4.16796875 42.06640625 C-2.10307581 28.39693157 -0.63074527 14.88587063 -0.16796875 1.06640625 C-0.79445312 1.42734375 -1.4209375 1.78828125 -2.06640625 2.16015625 C-2.88367188 2.62421875 -3.7009375 3.08828125 -4.54296875 3.56640625 C-5.35507813 4.03046875 -6.1671875 4.49453125 -7.00390625 4.97265625 C-9.16796875 6.06640625 -9.16796875 6.06640625 -11.16796875 6.06640625 C-11.16796875 6.72640625 -11.16796875 7.38640625 -11.16796875 8.06640625 C-16.19654018 11.83783482 -16.19654018 11.83783482 -19.29296875 12.56640625 C-21.98939248 13.28545258 -23.26121831 15.09609746 -25.16796875 17.06640625 C-25.82796875 17.06640625 -26.48796875 17.06640625 -27.16796875 17.06640625 C-27.16796875 17.72640625 -27.16796875 18.38640625 -27.16796875 19.06640625 C-28.09609375 19.19015625 -28.09609375 19.19015625 -29.04296875 19.31640625 C-31.25374496 19.86064274 -31.25374496 19.86064274 -32.23046875 21.62890625 C-33.50787021 24.95015004 -33.88816975 28.30593626 -34.29296875 31.81640625 C-34.37933594 32.51378906 -34.46570313 33.21117187 -34.5546875 33.9296875 C-34.76568721 35.64112957 -34.96772376 37.35367254 -35.16796875 39.06640625 C-36.15796875 39.06640625 -37.14796875 39.06640625 -38.16796875 39.06640625 C-38.74277656 25.90969425 -38.74277656 25.90969425 -35.16796875 21.06640625 C-32.97229009 18.87072759 -30.73958929 16.81386888 -28.16796875 15.06640625 C-27.50796875 15.06640625 -26.84796875 15.06640625 -26.16796875 15.06640625 C-26.16796875 14.40640625 -26.16796875 13.74640625 -26.16796875 13.06640625 C-20.8738511 9.06640625 -20.8738511 9.06640625 -17.16796875 9.06640625 C-17.16796875 8.40640625 -17.16796875 7.74640625 -17.16796875 7.06640625 C-14.96877515 5.82997074 -12.76585898 4.60164814 -10.5546875 3.38671875 C-8.63992771 2.32748993 -6.74430602 1.23369786 -4.85546875 0.12890625 C-2.16796875 -0.93359375 -2.16796875 -0.93359375 0 0 Z " fill="#E9F6FD" transform="translate(247.16796875,275.93359375)"/>
<path d="M0 0 C0.78375 0.2475 1.5675 0.495 2.375 0.75 C5.95582359 7.91164718 3.08063915 19.87722118 2.1875 27.5625 C2.08663086 28.54049561 1.98576172 29.51849121 1.88183594 30.52612305 C0.89877483 38.30913179 -1.46204931 43.81297436 -7.25 49.1875 C-13.03249762 52.99177475 -19.95767317 52.29474132 -26.625 51.75 C-32.04825601 49.31888524 -35.22554439 45.36526032 -37.375 39.8125 C-38.12492441 33.62562358 -37.60206648 29.29350311 -34.625 23.75 C-32.125 21 -32.125 21 -29.625 18.75 C-29.068125 18.151875 -28.51125 17.55375 -27.9375 16.9375 C-26.625 15.75 -26.625 15.75 -24.625 15.75 C-24.625 15.09 -24.625 14.43 -24.625 13.75 C-23.635 13.42 -22.645 13.09 -21.625 12.75 C-21.13 12.234375 -20.635 11.71875 -20.125 11.1875 C-18.625 9.75 -18.625 9.75 -15.625 9.75 C-15.625 9.09 -15.625 8.43 -15.625 7.75 C-13.54296875 6.3125 -13.54296875 6.3125 -10.8125 4.75 C-2.21727468 -0.21116902 -2.21727468 -0.21116902 0 0 Z M-7.1875 5.1875 C-12.54905063 8.71202532 -12.54905063 8.71202532 -14.625 9.75 C-14.625 10.41 -14.625 11.07 -14.625 11.75 C-16.605 12.41 -18.585 13.07 -20.625 13.75 C-20.625 14.41 -20.625 15.07 -20.625 15.75 C-21.32625 15.95625 -22.0275 16.1625 -22.75 16.375 C-27.80349178 18.79188737 -31.40592836 22.60404939 -33.625 27.75 C-35.87167009 34.7396403 -35.86602268 39.15220383 -32.625 45.75 C-31.01506095 48.78148577 -31.01506095 48.78148577 -28.9296875 49.421875 C-25.85568933 49.85952898 -22.8551946 49.95993297 -19.75 50 C-17.95949219 50.03867187 -17.95949219 50.03867187 -16.1328125 50.078125 C-12.00150152 49.6916772 -10.00929742 49.18669414 -6.625 46.75 C-1.01434966 39.96550777 0.36596544 33.4203603 0.75 24.8125 C0.81832031 23.80509766 0.88664062 22.79769531 0.95703125 21.75976562 C1.37748587 15.08826628 1.44907975 8.43281695 1.375 1.75 C-2.47894614 1.75 -3.99557038 3.07513113 -7.1875 5.1875 Z " fill="#E9F6FD" transform="translate(314.625,275.25)"/>
<path d="M0 0 C0.99 0 1.98 0 3 0 C3.08581624 7.7329968 2.89595487 15.4089703 2.375 23.125 C2.30732422 24.65447266 2.30732422 24.65447266 2.23828125 26.21484375 C1.71636407 33.60708887 -0.32272234 38.26044375 -5 44 C-5.66 43.67 -6.32 43.34 -7 43 C-6.51015625 42.14535156 -6.0203125 41.29070312 -5.515625 40.41015625 C-3.87598689 36.7209705 -3.65720959 34.44140601 -3.75 30.4375 C-3.77578125 29.22707031 -3.8015625 28.01664062 -3.828125 26.76953125 C-4.0835926 21.1666622 -4.48052421 15.58436478 -5 10 C-9.41522109 11.26974972 -9.41522109 11.26974972 -13 14 C-13.66 14 -14.32 14 -15 14 C-18.65357021 15.83273222 -18.65357021 15.83273222 -21 19 C-21.66 18.67 -22.32 18.34 -23 18 C-22.34 16.68 -21.68 15.36 -21 14 C-20.34 14 -19.68 14 -19 14 C-19 13.34 -19 12.68 -19 12 C-17.02 11.34 -15.04 10.68 -13 10 C-13 9.34 -13 8.68 -13 8 C-11.06753564 6.73792297 -9.07723953 5.56359129 -7.0625 4.4375 C-3.31381893 2.52358755 -3.31381893 2.52358755 0 0 Z " fill="#9EC7ED" transform="translate(313,277)"/>
<path d="M0 0 C0.02892857 3.95831809 0.04677427 7.91660917 0.0625 11.875 C0.07087891 13.00292969 0.07925781 14.13085938 0.08789062 15.29296875 C0.09111328 16.36933594 0.09433594 17.44570313 0.09765625 18.5546875 C0.10289307 19.54968262 0.10812988 20.54467773 0.11352539 21.56982422 C0 24 0 24 -1 26 C-1.38923527 28.36950521 -1.7380578 30.7457572 -2.0625 33.125 C-2.23910156 34.40632813 -2.41570312 35.68765625 -2.59765625 37.0078125 C-2.73042969 37.99523437 -2.86320312 38.98265625 -3 40 C-3.33 40 -3.66 40 -4 40 C-3.9278125 39.10023438 -3.855625 38.20046875 -3.78125 37.2734375 C-2.93241476 25.50763796 -2.89401184 13.79240549 -3 2 C-15.15807549 8.12709141 -15.15807549 8.12709141 -25.59375 16.70703125 C-27 18 -27 18 -30 18 C-30 18.66 -30 19.32 -30 20 C-30.66 20 -31.32 20 -32 20 C-35.06117977 26.53051684 -35.64481297 33.55181407 -34.0625 40.5625 C-33.88847656 41.34753906 -33.71445313 42.13257813 -33.53515625 42.94140625 C-33.06477289 45.04361254 -33.06477289 45.04361254 -32 47 C-35 46 -35 46 -36.625 43.1875 C-39.39529454 36.76545356 -40.0177105 31.00224599 -37.75 24.3125 C-33.64885496 16.54961832 -33.64885496 16.54961832 -29 15 C-28.505 14.484375 -28.01 13.96875 -27.5 13.4375 C-26 12 -26 12 -23 12 C-23 11.34 -23 10.68 -23 10 C-21.68 9.67 -20.36 9.34 -19 9 C-19 8.34 -19 7.68 -19 7 C-17.35 6.67 -15.7 6.34 -14 6 C-14 5.34 -14 4.68 -14 4 C-8.90045061 0.66968203 -6.24717529 -0.23998753 0 0 Z " fill="#E6F4FD" transform="translate(111,276)"/>
<path d="M0 0 C4.70588235 0.70588235 4.70588235 0.70588235 6 2 C6.10246001 4.76039315 6.14169256 7.4896074 6.125 10.25 C6.12016602 11.0661377 6.11533203 11.88227539 6.11035156 12.72314453 C5.89379227 34.79053682 5.89379227 34.79053682 1 45 C0.01 45.66 -0.98 46.32 -2 47 C-1.80664062 46.3915625 -1.61328125 45.783125 -1.4140625 45.15625 C2.66126094 31.43733942 3.3315502 17.21335359 4 3 C3.45472656 3.30292969 2.90945312 3.60585938 2.34765625 3.91796875 C0.76363464 4.79798076 -0.82104669 5.67680592 -2.40625 6.5546875 C-4.11954238 7.50938355 -5.82801528 8.4727865 -7.53125 9.4453125 C-8.3253125 9.89648438 -9.119375 10.34765625 -9.9375 10.8125 C-10.66839844 11.23144531 -11.39929688 11.65039062 -12.15234375 12.08203125 C-14 13 -14 13 -16 13 C-16 13.66 -16 14.32 -16 15 C-17.70129749 16.35517144 -19.46285924 17.63522958 -21.25 18.875 C-24.82777792 21.36430051 -28.00855274 23.82336791 -31 27 C-31.66 26.67 -32.32 26.34 -33 26 C-31.75537955 22.26613864 -30.08692325 21.35194152 -27 19 C-26.505 18.484375 -26.01 17.96875 -25.5 17.4375 C-23.08117297 15.11945743 -20.42726284 13 -17 13 C-17 12.34 -17 11.68 -17 11 C-11.70588235 7 -11.70588235 7 -8 7 C-8 6.34 -8 5.68 -8 5 C-6.20963542 3.99088542 -4.41927083 2.98177083 -2.62890625 1.97265625 C-1.02121854 1.1027487 -1.02121854 1.1027487 0 0 Z " fill="#E9F7FE" transform="translate(140,332)"/>
<path d="M0 0 C0 1.65 0 3.3 0 5 C-0.5775 5.226875 -1.155 5.45375 -1.75 5.6875 C-4.18940152 6.91512173 -4.18940152 6.91512173 -5.875 9.5 C-8 12 -8 12 -11.125 13 C-14.18176848 13.70454371 -14.18176848 13.70454371 -15.3125 16.375 C-15.539375 17.24125 -15.76625 18.1075 -16 19 C-16.20625 19.70125 -16.4125 20.4025 -16.625 21.125 C-17.09805807 23.17160162 -17.09805807 23.17160162 -17 26 C-17.66 26.33 -18.32 26.66 -19 27 C-19 27.66 -19 28.32 -19 29 C-19.928125 29.3403125 -19.928125 29.3403125 -20.875 29.6875 C-23.12316947 30.86291624 -23.12316947 30.86291624 -24.3125 33.0625 C-25.27670626 37.18229037 -24.66741069 40.86024994 -24 45 C-24.78375 45.309375 -25.5675 45.61875 -26.375 45.9375 C-28.92330128 46.92875038 -28.92330128 46.92875038 -31 48 C-30.02784728 32.93163287 -22.4722933 21.32430991 -13 10 C-12.52175781 9.39800781 -12.04351563 8.79601562 -11.55078125 8.17578125 C-5.02251259 0 -5.02251259 0 0 0 Z " fill="#A2C7E9" transform="translate(44,123)"/>
<path d="M0 0 C0.1982842 10.53109421 0.31290989 20.65385845 -2 31 C-2.66 31 -3.32 31 -4 31 C-4 30.01 -4 29.02 -4 28 C-4.66 28 -5.32 28 -6 28 C-6 25.03 -6 22.06 -6 19 C-5.67 19 -5.34 19 -5 19 C-5.020625 17.700625 -5.04125 16.40125 -5.0625 15.0625 C-5.08399454 13.70834367 -5.07148199 12.35243917 -5 11 C-4.67 10.67 -4.34 10.34 -4 10 C-3.95936168 8.33382885 -3.957279 6.66611905 -4 5 C-4.226875 5.78375 -4.45375 6.5675 -4.6875 7.375 C-6 10 -6 10 -8.1875 11.1875 C-9.115625 11.455625 -10.04375 11.72375 -11 12 C-12.258125 12.37125 -13.51625 12.7425 -14.8125 13.125 C-15.864375 13.41375 -16.91625 13.7025 -18 14 C-18 12.68 -18 11.36 -18 10 C-16.0234375 8.18359375 -16.0234375 8.18359375 -13.375 6.4375 C-12.00988281 5.53644531 -12.00988281 5.53644531 -10.6171875 4.6171875 C-3.14492754 0 -3.14492754 0 0 0 Z " fill="#8DBDE4" transform="translate(178,277)"/>
<path d="M0 0 C2.375 0.6875 2.375 0.6875 3.375 1.6875 C3.47438863 3.45603292 3.50469223 5.22868275 3.5 7 C3.50386719 8.44826172 3.50386719 8.44826172 3.5078125 9.92578125 C3.375 12.6875 3.375 12.6875 2.890625 14.53125 C2.2471581 17.2221116 2.18667129 19.87210575 2.08422852 22.62866211 C1.44730268 39.61519732 1.44730268 39.61519732 -3.625 44.6875 C-3.42583984 43.8521875 -3.42583984 43.8521875 -3.22265625 43 C-3.04605469 42.236875 -2.86945313 41.47375 -2.6875 40.6875 C-2.42646484 39.57375 -2.42646484 39.57375 -2.16015625 38.4375 C-0.62631816 30.5555875 -0.34225951 22.69504272 -0.0625 14.6875 C-0.01931641 13.53121094 0.02386719 12.37492187 0.06835938 11.18359375 C0.17367917 8.35166146 0.27581087 5.51965253 0.375 2.6875 C-13.4651795 10.94795311 -13.4651795 10.94795311 -26.55859375 20.32421875 C-28.625 21.6875 -28.625 21.6875 -31.625 21.6875 C-31.625 21.0275 -31.625 20.3675 -31.625 19.6875 C-29.5078125 17.9609375 -29.5078125 17.9609375 -26.75 16.0625 C-25.84507812 15.43085938 -24.94015625 14.79921875 -24.0078125 14.1484375 C-21.625 12.6875 -21.625 12.6875 -19.625 12.6875 C-19.625 12.0275 -19.625 11.3675 -19.625 10.6875 C-17.38170604 9.09911749 -15.14797625 7.6279021 -12.8125 6.1875 C-11.53512919 5.38545976 -10.25778455 4.58337785 -8.98046875 3.78125 C-7.31951172 2.74484375 -7.31951172 2.74484375 -5.625 1.6875 C-2.625 -0.3125 -2.625 -0.3125 0 0 Z " fill="#E5F5FD" transform="translate(280.625,332.3125)"/>
<path d="M0 0 C0.33 0 0.66 0 1 0 C1 1.65 1 3.3 1 5 C1.66 5 2.32 5 3 5 C3.06316406 5.75925781 3.12632812 6.51851563 3.19140625 7.30078125 C3.56569266 10.33841092 4.04057723 13.09161529 5 16 C7.75719959 17.89557472 8.87759295 18.41491074 12 19 C12.74636719 19.14050781 13.49273437 19.28101562 14.26171875 19.42578125 C15.92539402 19.73386926 17.58948001 20.03974521 19.25390625 20.34375 C27.23966928 22.25215425 34.74566913 26.2333282 42 30 C42 30.66 42 31.32 42 32 C43.65 32.33 45.3 32.66 47 33 C47 33.33 47 33.66 47 34 C42.91585492 34.48048766 41.10896361 33.50823513 37.8515625 31.14453125 C33.90492995 28.70494615 29.3819227 27.45060903 25 26 C24.2059375 25.72027344 23.411875 25.44054687 22.59375 25.15234375 C15.1808278 22.69372455 7.73381584 21.91399642 0 21 C0 14.07 0 7.14 0 0 Z " fill="#E6F4FC" transform="translate(300,86)"/>
<path d="M0 0 C0.2071352 10.89761308 0.15729044 21.27133239 -2 32 C-4.58797786 28.11803321 -4.18530856 24.92187329 -4.0625 20.4375 C-3.67622359 15.06051856 -3.67622359 15.06051856 -5 10 C-10.86448454 10.2555331 -14.65757571 10.65757571 -19 15 C-19.66 14.67 -20.32 14.34 -21 14 C-17.87378374 10.60582235 -15.43458973 8.3937282 -11 7 C-11 6.34 -11 5.68 -11 5 C-9.54462432 4.16151196 -8.08559627 3.32936066 -6.625 2.5 C-5.40683594 1.80390625 -5.40683594 1.80390625 -4.1640625 1.09375 C-2 0 -2 0 0 0 Z " fill="#91C0EE" transform="translate(247,277)"/>
<path d="M0 0 C1.46373047 0.02707031 1.46373047 0.02707031 2.95703125 0.0546875 C3.69308594 0.07789063 4.42914063 0.10109375 5.1875 0.125 C4.8575 0.785 4.5275 1.445 4.1875 2.125 C2.18989695 2.47240923 0.18962229 2.80466043 -1.8125 3.125 C-2.8025 3.785 -3.7925 4.445 -4.8125 5.125 C-5.67875 5.269375 -6.545 5.41375 -7.4375 5.5625 C-12.49845211 6.40599202 -18.1092705 7.4217705 -21.8125 11.125 C-22.823125 11.62 -23.83375 12.115 -24.875 12.625 C-27.89856682 13.80280112 -27.89856682 13.80280112 -28.8125 16.125 C-34.23557692 19.125 -34.23557692 19.125 -36.8125 19.125 C-36.8125 18.465 -36.8125 17.805 -36.8125 17.125 C-33.8125 15.125 -33.8125 15.125 -30.8125 15.125 C-30.8125 14.465 -30.8125 13.805 -30.8125 13.125 C-30.1525 13.125 -29.4925 13.125 -28.8125 13.125 C-28.4825 11.805 -28.1525 10.485 -27.8125 9.125 C-26.8225 9.125 -25.8325 9.125 -24.8125 9.125 C-24.8125 8.465 -24.8125 7.805 -24.8125 7.125 C-23.85988281 6.78726562 -22.90726563 6.44953125 -21.92578125 6.1015625 C-20.6588359 5.65109304 -19.39190984 5.20056933 -18.125 4.75 C-16.88363281 4.30914063 -15.64226562 3.86828125 -14.36328125 3.4140625 C-12.29119203 2.66181889 -10.23216388 1.86629595 -8.21875 0.96875 C-5.35198598 -0.03647894 -3.02858578 -0.07297797 0 0 Z " fill="#DBEFFA" transform="translate(168.8125,7.875)"/>
<path d="M0 0 C0.33 0 0.66 0 1 0 C1.33 4.29 1.66 8.58 2 13 C2.66 13 3.32 13 4 13 C4.24908976 22.23015944 3.68944836 30.91921505 2 40 C1.34 40 0.68 40 0 40 C-1.17402193 32.66236293 -1.09377123 25.41834582 -1 18 C-0.34 18 0.32 18 1 18 C0.67 17.01 0.34 16.02 0 15 C-0.99 15.495 -0.99 15.495 -2 16 C-1.34 10.72 -0.68 5.44 0 0 Z " fill="#A0C8EB" transform="translate(375,168)"/>
<path d="M0 0 C-3.67063663 3.19700609 -7.52250393 5.46909378 -11.78125 7.76171875 C-13.7487471 8.85977611 -15.58778844 10.02948929 -17.4375 11.3125 C-20 13 -20 13 -22 13 C-22 13.66 -22 14.32 -22 15 C-25 17 -25 17 -28 17 C-28.433125 18.2065625 -28.433125 18.2065625 -28.875 19.4375 C-30 22 -30 22 -32 23 C-32.495 24.2375 -32.495 24.2375 -33 25.5 C-34 28 -34 28 -36 29 C-36.93548664 32.3677519 -37.09947301 35.5184446 -37 39 C-39.59887264 35.10169104 -39.102129 33.01789253 -38.54296875 28.51171875 C-37.77919127 24.97856103 -36.36688453 22.7050109 -34 20 C-31.75 18.625 -31.75 18.625 -30 18 C-30 17.34 -30 16.68 -30 16 C-28.68 15.67 -27.36 15.34 -26 15 C-26 14.34 -26 13.68 -26 13 C-24.35 12.67 -22.7 12.34 -21 12 C-21 11.34 -21 10.68 -21 10 C-19.68 9.67 -18.36 9.34 -17 9 C-17 8.34 -17 7.68 -17 7 C-13.70450534 5.27735506 -10.66881155 3.70554068 -7 3 C-7 2.34 -7 1.68 -7 1 C-4.53721199 -0.231394 -2.7204945 -0.07159196 0 0 Z " fill="#EBF6FE" transform="translate(178,276)"/>
<path d="M0 0 C0.66 0.66 1.32 1.32 2 2 C2.99 1.67 3.98 1.34 5 1 C5.36945524 11.79630321 5.06367689 20.44923324 -2 29 C-2.66 28.67 -3.32 28.34 -4 28 C-3.50757813 27.23300781 -3.01515625 26.46601563 -2.5078125 25.67578125 C-0.47982228 20.73189835 -0.7097049 16.46616319 -0.875 11.1875 C-0.91814656 9.2852445 -0.95742776 7.38289598 -0.9921875 5.48046875 C-1.01651855 4.64410889 -1.04084961 3.80774902 -1.06591797 2.94604492 C-1 1 -1 1 0 0 Z " fill="#A9D3F6" transform="translate(310,292)"/>
<path d="M0 0 C0.66 0 1.32 0 2 0 C6.50784761 6.13439056 9.62657917 13.04362886 12.3125 20.125 C12.55452148 20.75664062 12.79654297 21.38828125 13.04589844 22.0390625 C16.36870808 31.18733389 17.29325011 39.93120505 17.125 49.625 C17.11597656 50.62917969 17.10695313 51.63335937 17.09765625 52.66796875 C17.07437746 55.11224126 17.04168487 57.55598408 17 60 C16.67 60 16.34 60 16 60 C15.98018066 59.39003174 15.96036133 58.78006348 15.93994141 58.15161133 C15.84432124 55.37149467 15.73479295 52.59209154 15.625 49.8125 C15.5940625 48.85279297 15.563125 47.89308594 15.53125 46.90429688 C15.49257813 45.97294922 15.45390625 45.04160156 15.4140625 44.08203125 C15.3826416 43.22843018 15.3512207 42.3748291 15.31884766 41.49536133 C14.96569185 38.73149799 14.1000071 36.54950402 13 34 C12.71543123 32.52709313 12.46611383 31.04699616 12.25 29.5625 C10.38108462 19.73229943 5.98648088 10.92328351 0 3 C0 2.01 0 1.02 0 0 Z " fill="#ECF6FD" transform="translate(364,138)"/>
<path d="M0 0 C1.32 0 2.64 0 4 0 C4 5.94 4 11.88 4 18 C3.34 18 2.68 18 2 18 C2 14.04 2 10.08 2 6 C-2.8991349 7.29977048 -7.37559575 8.92373687 -12 11 C-12 11.66 -12 12.32 -12 13 C-13.32 12.67 -14.64 12.34 -16 12 C-12.22111824 7.71726734 -8.05344788 5.0720973 -3.109375 2.234375 C-1.08459788 1.16898386 -1.08459788 1.16898386 0 0 Z " fill="#97C0E5" transform="translate(208,336)"/>
<path d="M0 0 C0.05404449 2.75026417 0.09369306 5.49946203 0.125 8.25 C0.15013672 9.41595703 0.15013672 9.41595703 0.17578125 10.60546875 C0.18222656 11.35957031 0.18867188 12.11367188 0.1953125 12.890625 C0.20578613 13.58188477 0.21625977 14.27314453 0.22705078 14.98535156 C0 17 0 17 -2 21 C-2.66 17.37 -3.32 13.74 -4 10 C-8.12148343 8.17339803 -8.12148343 8.17339803 -12.375 8.875 C-12.91125 9.24625 -13.4475 9.6175 -14 10 C-12.69467452 6.08402356 -11.02734726 5.46169654 -7.5625 3.3125 C-6.07943359 2.37857422 -6.07943359 2.37857422 -4.56640625 1.42578125 C-2 0 -2 0 0 0 Z " fill="#A0C0DE" transform="translate(281,335)"/>
<path d="M0 0 C9.94115109 8.83657875 14.61530817 23.10376564 16 36 C16.02545999 37.66647219 16.03273178 39.33365478 16 41 C15.34 41 14.68 41 14 41 C13.34 36.71 12.68 32.42 12 28 C11.34 28.33 10.68 28.66 10 29 C9.92652344 28.14728516 9.92652344 28.14728516 9.8515625 27.27734375 C9.37026303 22.30668193 8.75897139 17.69059038 7 13 C6.01 12.67 5.02 12.34 4 12 C3.67 10.35 3.34 8.7 3 7 C2.34 7 1.68 7 1 7 C0.67 4.69 0.34 2.38 0 0 Z " fill="#B3D2EA" transform="translate(363,140)"/>
<path d="M0 0 C0.66 0 1.32 0 2 0 C2.75989687 33.33803944 2.75989687 33.33803944 -4 43 C-4.66 43 -5.32 43 -6 43 C-4.15213318 38.24834246 -4.15213318 38.24834246 -2.96923828 36.31738281 C-1.58559745 33.00919168 -1.53066968 29.70839014 -1.3671875 26.171875 C-1.32562531 25.42286926 -1.28406311 24.67386353 -1.24124146 23.90216064 C-1.11087298 21.51846656 -0.99277516 19.13434619 -0.875 16.75 C-0.78856995 15.13016494 -0.70133946 13.51037237 -0.61328125 11.890625 C-0.39957556 7.92751591 -0.19686964 3.96397965 0 0 Z " fill="#EBF6FE" transform="translate(178,278)"/>
<path d="M0 0 C-3.54065311 3.12410569 -6.53100984 4.57804859 -11 6 C-11.33 6.66 -11.66 7.32 -12 8 C-12.680625 8.12375 -13.36125 8.2475 -14.0625 8.375 C-18.07420206 9.22855363 -21.40045194 11.07964557 -25 13 C-25.33 12.34 -25.66 11.68 -26 11 C-25 8 -25 8 -21.76171875 6.2109375 C-20.40853074 5.58823151 -19.05017302 4.97666667 -17.6875 4.375 C-16.67139648 3.90707031 -16.67139648 3.90707031 -15.63476562 3.4296875 C-10.09098425 0.91520602 -6.07279041 -0.13801796 0 0 Z " fill="#ACCFEC" transform="translate(72,110)"/>
<path d="M0 0 C0 0.99 0 1.98 0 3 C-1.5390625 4.359375 -1.5390625 4.359375 -3.625 5.75 C-8.61724592 9.33235764 -13.47343279 12.95761166 -14.5625 19.25 C-14.706875 20.1575 -14.85125 21.065 -15 22 C-17.375 23.75 -17.375 23.75 -20 25 C-20.99 25.66 -21.98 26.32 -23 27 C-22.67 25.35 -22.34 23.7 -22 22 C-21.01 22 -20.02 22 -19 22 C-18.690625 21.05125 -18.38125 20.1025 -18.0625 19.125 C-17 16 -17 16 -16 14 C-15.34 14 -14.68 14 -14 14 C-13.62875 13.195625 -13.62875 13.195625 -13.25 12.375 C-11.6859619 9.4033276 -10.01623538 6.68831383 -8 4 C-7.01 4 -6.02 4 -5 4 C-4.67 3.01 -4.34 2.02 -4 1 C-2 0 -2 0 0 0 Z " fill="#C5E1F4" transform="translate(124,34)"/>
<path d="M0 0 C0.33 1.32 0.66 2.64 1 4 C-3.95 5.485 -3.95 5.485 -9 7 C-9 7.66 -9 8.32 -9 9 C-13.47058824 13 -13.47058824 13 -16 13 C-19.65357021 14.83273222 -19.65357021 14.83273222 -22 18 C-22.66 17.67 -23.32 17.34 -24 17 C-23.34 15.68 -22.68 14.36 -22 13 C-21.34 13 -20.68 13 -20 13 C-20 12.34 -20 11.68 -20 11 C-18.02 10.34 -16.04 9.68 -14 9 C-14 8.34 -14 7.68 -14 7 C-11.953125 5.52734375 -11.953125 5.52734375 -9.25 3.9375 C-8.36828125 3.41027344 -7.4865625 2.88304687 -6.578125 2.33984375 C-4.3302023 1.17160513 -2.47179076 0.46779218 0 0 Z " fill="#A5C6E5" transform="translate(314,278)"/>
<path d="M0 0 C0.02918874 3.70831663 0.04686218 7.41660342 0.0625 11.125 C0.07087891 12.17171875 0.07925781 13.2184375 0.08789062 14.296875 C0.10375207 19.3090905 0.08177213 24.07665912 -1 29 C-1.33 29 -1.66 29 -2 29 C-2 21.08 -2 13.16 -2 5 C-5.12498166 4.6626154 -5.12498166 4.6626154 -7.1875 7 C-7.785625 7.66 -8.38375 8.32 -9 9 C-9.99 8.67 -10.98 8.34 -12 8 C-4.64864865 0 -4.64864865 0 0 0 Z " fill="#A5C7E7" transform="translate(109,277)"/>
<path d="M0 0 C0 4.29 0 8.58 0 13 C-0.66 12.67 -1.32 12.34 -2 12 C-2.625 8.9375 -2.625 8.9375 -3 6 C-5.97 7.32 -8.94 8.64 -12 10 C-12.33 8.68 -12.66 7.36 -13 6 C-11.40089132 4.99193149 -9.79551738 3.99379615 -8.1875 3 C-7.29417969 2.443125 -6.40085938 1.88625 -5.48046875 1.3125 C-3 0 -3 0 0 0 Z " fill="#97C0E7" transform="translate(143,336)"/>
<path d="M0 0 C0.25991325 10.85859801 -0.3999856 21.25704615 -2 32 C-2.33 32 -2.66 32 -3 32 C-3.02700675 29.08327116 -3.04684237 26.16679323 -3.0625 23.25 C-3.07087891 22.425 -3.07925781 21.6 -3.08789062 20.75 C-3.09111328 19.95078125 -3.09433594 19.1515625 -3.09765625 18.328125 C-3.10289307 17.5949707 -3.10812988 16.86181641 -3.11352539 16.10644531 C-2.99727398 13.94941905 -2.55459296 12.08188999 -2 10 C-1.93451508 8.41788427 -1.91421619 6.83329919 -1.9375 5.25 C-1.94652344 4.45078125 -1.95554688 3.6515625 -1.96484375 2.828125 C-1.97644531 2.22484375 -1.98804688 1.6215625 -2 1 C-3.65 1 -5.3 1 -7 1 C-7.33 0.34 -7.66 -0.32 -8 -1 C-4.37673261 -2.2077558 -3.35853631 -1.54311128 0 0 Z " fill="#EDF8FE" transform="translate(215,334)"/>
<path d="M0 0 C0.66 0.99 1.32 1.98 2 3 C2.99 3 3.98 3 5 3 C4.34 6.3 3.68 9.6 3 13 C3.66 13 4.32 13 5 13 C5 15.64 5 18.28 5 21 C2.44612397 18.44612397 1.66911986 15.99273882 0.375 12.625 C-0.07101562 11.48289063 -0.51703125 10.34078125 -0.9765625 9.1640625 C-2 6 -2 6 -2 2 C-1.34 2 -0.68 2 0 2 C0 1.34 0 0.68 0 0 Z " fill="#91BAE1" transform="translate(15,203)"/>
<path d="M0 0 C0.66 0 1.32 0 2 0 C1.42098715 2.3504482 0.81253494 4.68766806 0.17578125 7.0234375 C-0.10910156 8.12945312 -0.39398438 9.23546875 -0.6875 10.375 C-0.98011719 11.47585938 -1.27273437 12.57671875 -1.57421875 13.7109375 C-2.06759463 17.52215304 -1.66959925 19.55371351 0 23 C1.88332039 24.74449534 1.88332039 24.74449534 4.125 25.875 C4.84945312 26.28492188 5.57390625 26.69484375 6.3203125 27.1171875 C6.87460938 27.40851563 7.42890625 27.69984375 8 28 C7.01 28.33 6.02 28.66 5 29 C0.61980508 26.62739442 -1.80574458 24.44608606 -4 20 C-5.17283371 12.33959966 -4.02232802 6.53628304 0 0 Z " fill="#F3F9FE" transform="translate(247,354)"/>
<path d="M0 0 C1 2 1 2 0.5 5.3125 C0.04485517 8.66919311 0.12218442 10.78134286 1 14 C0.21625 14.309375 -0.5675 14.61875 -1.375 14.9375 C-3.92330128 15.92875038 -3.92330128 15.92875038 -6 17 C-5.61026207 11.07329556 -4.7584126 6.29615218 -2 1 C-1.34 0.67 -0.68 0.34 0 0 Z " fill="#94BFE9" transform="translate(19,154)"/>
<path d="M0 0 C0 1.65 0 3.3 0 5 C-0.5775 5.226875 -1.155 5.45375 -1.75 5.6875 C-4.20075154 6.91628711 -4.20075154 6.91628711 -5.875 9.5625 C-8 12 -8 12 -11.25 12.8125 C-12.1575 12.874375 -13.065 12.93625 -14 13 C-11.45945401 7.28377153 -6.76588115 0 0 0 Z " fill="#A7CAE7" transform="translate(44,123)"/>
<path d="M0 0 C0.66 0.33 1.32 0.66 2 1 C0 4 0 4 -2.0625 4.75 C-2.701875 5.1625 -3.34125 5.575 -4 6 C-4.81870185 9.56206661 -4.81870185 9.56206661 -5 13 C-8.3 13 -11.6 13 -15 13 C-15 12.34 -15 11.68 -15 11 C-14.071875 10.87625 -14.071875 10.87625 -13.125 10.75 C-12.42375 10.5025 -11.7225 10.255 -11 10 C-10.7215625 9.3915625 -10.443125 8.783125 -10.15625 8.15625 C-8.68098145 5.40507352 -7.00117556 4.40073893 -4.375 2.75 C-3.55773437 2.22921875 -2.74046875 1.7084375 -1.8984375 1.171875 C-1.27195312 0.78515625 -0.64546875 0.3984375 0 0 Z " fill="#B1DAF6" transform="translate(97,283)"/>
<path d="M0 0 C0.495 0.99 0.495 0.99 1 2 C-0.19496094 2.06058594 -1.38992187 2.12117187 -2.62109375 2.18359375 C-14.35320471 2.66393602 -14.35320471 2.66393602 -26 4 C-26.33 4.66 -26.66 5.32 -27 6 C-29.64 5.67 -32.28 5.34 -35 5 C-34.67 4.34 -34.34 3.68 -34 3 C-32.27270508 2.49755859 -32.27270508 2.49755859 -30.01953125 2.1484375 C-29.19098633 2.01928955 -28.36244141 1.8901416 -27.50878906 1.75708008 C-26.61901367 1.63099365 -25.72923828 1.50490723 -24.8125 1.375 C-23.91370117 1.24311279 -23.01490234 1.11122559 -22.08886719 0.9753418 C-14.6749991 -0.04614502 -7.48533179 -0.3346092 0 0 Z " fill="#F4FEFE" transform="translate(203,3)"/>
<path d="M0 0 C0.66 0 1.32 0 2 0 C2.2071352 10.89761308 2.15729044 21.27133239 0 32 C-2.84262859 27.73605712 -2.40056056 24.00700696 -2 19 C-1.67 17.88625 -1.34 16.7725 -1 15.625 C0.43520873 10.42236834 0.15852777 5.36352299 0 0 Z " fill="#AECDE6" transform="translate(245,277)"/>
<path d="M0 0 C0.33 0 0.66 0 1 0 C1.04898437 1.24136719 1.09796875 2.48273438 1.1484375 3.76171875 C1.22349799 5.40366694 1.29904439 7.04559297 1.375 8.6875 C1.4059375 9.50412109 1.436875 10.32074219 1.46875 11.16210938 C1.68171106 15.54555783 2.11270808 18.975207 4 23 C5.28625721 27.63687783 6.31215901 32.16153538 6 37 C1.52048197 34.01365465 1.58722797 30.559709 0.5625 25.44140625 C-0.69738342 17.05968181 -0.23578257 8.44706169 0 0 Z " fill="#EEF8FE" transform="translate(8,177)"/>
<path d="M0 0 C0.33 0 0.66 0 1 0 C0.85879984 2.58366245 0.71221667 5.16682885 0.5625 7.75 C0.52318359 8.47960937 0.48386719 9.20921875 0.44335938 9.9609375 C0.23852902 13.4272973 -0.0852002 16.65333026 -1 20 C-1.66 20 -2.32 20 -3 20 C-3 19.01 -3 18.02 -3 17 C-3.66 17 -4.32 17 -5 17 C-5 14.03 -5 11.06 -5 8 C-3.68 7.34 -2.36 6.68 -1 6 C-0.18415432 2.94091587 -0.18415432 2.94091587 0 0 Z " fill="#ACD1ED" transform="translate(177,288)"/>
<path d="M0 0 C0.66 0.33 1.32 0.66 2 1 C2 3 2 5 2 7 C-1.92438786 8.66489182 -5.89100419 9.87204037 -10 11 C-10 9.68 -10 8.36 -10 7 C-7.8125 5.078125 -7.8125 5.078125 -5 3.25 C-4.071875 2.63640625 -3.14375 2.0228125 -2.1875 1.390625 C-1.1046875 0.70226562 -1.1046875 0.70226562 0 0 Z " fill="#A3CEEE" transform="translate(170,280)"/>
<path d="M0 0 C0.66 0 1.32 0 2 0 C1.36814179 15.5132084 1.36814179 15.5132084 -2 22 C-4.1875 23.5 -4.1875 23.5 -6 24 C-4.22131148 17.39344262 -4.22131148 17.39344262 -2.875 15 C-1.77453941 12.84850002 -1.77453941 12.84850002 -2 9.625 C-2 5.9464243 -1.32729439 3.40119187 0 0 Z " fill="#BED7ED" transform="translate(210,354)"/>
<path d="M0 0 C0.66 0.33 1.32 0.66 2 1 C0.8553125 1.9590625 0.8553125 1.9590625 -0.3125 2.9375 C-3.71382846 6.30983986 -4.94249521 10.40888165 -6 15 C-6 15.99 -6 16.98 -6 18 C-8.5 19.6875 -8.5 19.6875 -11 21 C-10.3490155 12.75419628 -6.21375982 5.32607984 0 0 Z " fill="#C0DCF0" transform="translate(103,60)"/>
<path d="M0 0 C0.99 0.33 1.98 0.66 3 1 C3 1.66 3 2.32 3 3 C3.53625 3.20625 4.0725 3.4125 4.625 3.625 C7.91978009 5.53250426 10.59363628 8.04819384 13 11 C13 11.66 13 12.32 13 13 C13.99 13.33 14.98 13.66 16 14 C15.67 14.66 15.34 15.32 15 16 C14.2575 15.21625 13.515 14.4325 12.75 13.625 C10.45566682 11.43495469 8.87841142 10.17268614 6 9 C6 8.34 6 7.68 6 7 C5.38125 6.71125 4.7625 6.4225 4.125 6.125 C2 5 2 5 0 3 C0 2.01 0 1.02 0 0 Z " fill="#E7F4FC" transform="translate(348,121)"/>
<path d="M0 0 C0.33 0 0.66 0 1 0 C0.91283383 2.58492789 0.80594881 5.16647502 0.6875 7.75 C0.66494141 8.47960937 0.64238281 9.20921875 0.61914062 9.9609375 C0.40690219 14.20570619 0.02929201 16.913858 -3 20 C-3.96658722 16.24104971 -3.82471032 13.75701369 -3 10 C-2.96227087 8.0003559 -2.95350094 5.99945939 -3 4 C-2.34 4 -1.68 4 -1 4 C-0.67 2.68 -0.34 1.36 0 0 Z " fill="#B7D6F1" transform="translate(280,352)"/>
<path d="M0 0 C0.99 0.33 1.98 0.66 3 1 C-2.17668336 5.48645891 -5.01713309 7.14469704 -12.0625 7.1875 C-13.12597656 7.20167969 -14.18945312 7.21585937 -15.28515625 7.23046875 C-18 7 -18 7 -20 5 C-15.05 5 -10.1 5 -5 5 C-5 4.34 -5 3.68 -5 3 C-3.35 2.67 -1.7 2.34 0 2 C0 1.34 0 0.68 0 0 Z " fill="#EFF6FE" transform="translate(102,320)"/>
<path d="M0 0 C-0.56122722 3.25511789 -1.33120095 4.99840071 -4 7 C-5.66666667 7.33333333 -7.33333333 7.66666667 -9 8 C-10.79385992 9.4579186 -10.79385992 9.4579186 -12 11 C-12.66 10.67 -13.32 10.34 -14 10 C-10.87378374 6.60582235 -8.43458973 4.3937282 -4 3 C-4 2.34 -4 1.68 -4 1 C-2 0 -2 0 0 0 Z " fill="#A9CAE9" transform="translate(240,281)"/>
<path d="M0 0 C0.99 0.33 1.98 0.66 3 1 C1.50529266 3.98941468 -1.07557063 4.53778532 -4 6 C-4.33 6.66 -4.66 7.32 -5 8 C-10.42307692 11 -10.42307692 11 -13 11 C-13 10.34 -13 9.68 -13 9 C-10 7 -10 7 -7 7 C-7 6.34 -7 5.68 -7 5 C-6.34 5 -5.68 5 -5 5 C-5 4.01 -5 3.02 -5 2 C-3.35 2 -1.7 2 0 2 C0 1.34 0 0.68 0 0 Z " fill="#D6E9F8" transform="translate(145,16)"/>
<path d="M0 0 C0.33 0 0.66 0 1 0 C0.67 3.63 0.34 7.26 0 11 C-0.99 11 -1.98 11 -3 11 C-3 11.66 -3 12.32 -3 13 C-5.31 13.66 -7.62 14.32 -10 15 C-5.25 10.125 -5.25 10.125 -3 9 C-2.09274566 6.88672575 -2.09274566 6.88672575 -1.375 4.4375 C-1.11460938 3.61121094 -0.85421875 2.78492188 -0.5859375 1.93359375 C-0.39257812 1.29550781 -0.19921875 0.65742188 0 0 Z " fill="#C2DBF1" transform="translate(105,309)"/>
<path d="M0 0 C0.66 0 1.32 0 2 0 C2.33 0.99 2.66 1.98 3 3 C1.625 4.5 1.625 4.5 0 6 C-0.66 6 -1.32 6 -2 6 C-5.65357021 7.83273222 -5.65357021 7.83273222 -8 11 C-8.66 10.67 -9.32 10.34 -10 10 C-9.34 8.68 -8.68 7.36 -8 6 C-7.34 6 -6.68 6 -6 6 C-6 5.34 -6 4.68 -6 4 C-4.02 3.34 -2.04 2.68 0 2 C0 1.34 0 0.68 0 0 Z " fill="#AFD0EB" transform="translate(300,285)"/>
<path d="M0 0 C0.83796731 4.65537393 1.0161692 8.37078475 0 13 C-0.33 13 -0.66 13 -1 13 C-1.33 10.69 -1.66 8.38 -2 6 C-4.475 5.01 -4.475 5.01 -7 4 C-6.34 3.67 -5.68 3.34 -5 3 C-5 2.34 -5 1.68 -5 1 C-3 0 -3 0 0 0 Z " fill="#93BFEE" transform="translate(279,339)"/>
<path d="M0 0 C-0.33 0.66 -0.66 1.32 -1 2 C-6.78143614 3.85831876 -11.95635404 4.25181858 -18 4 C-14.73277083 1.82184722 -12.24630935 1.18490885 -8.4375 0.3125 C-6.70306641 -0.09548828 -6.70306641 -0.09548828 -4.93359375 -0.51171875 C-2 -1 -2 -1 0 0 Z " fill="#EDF7FE" transform="translate(85,104)"/>
<path d="M0 0 C0.33 0.66 0.66 1.32 1 2 C4.63 2 8.26 2 12 2 C12.66 3.32 13.32 4.64 14 6 C2.47835991 4.07289294 2.47835991 4.07289294 -3 2 C-2.01 1.34 -1.02 0.68 0 0 Z " fill="#9DC2E5" transform="translate(65,261)"/>
<path d="M0 0 C0.66 0.66 1.32 1.32 2 2 C0.3767313 2.6708712 -1.24867578 3.33657029 -2.875 4 C-3.77992188 4.37125 -4.68484375 4.7425 -5.6171875 5.125 C-8 6 -8 6 -10 6 C-10 6.66 -10 7.32 -10 8 C-11.65 8 -13.3 8 -15 8 C-15 7.01 -15 6.02 -15 5 C-14.28457031 4.87753906 -13.56914062 4.75507813 -12.83203125 4.62890625 C-9.94887287 3.98864625 -7.41407527 3.06448444 -4.6875 1.9375 C-3.80449219 1.57527344 -2.92148437 1.21304687 -2.01171875 0.83984375 C-1.34785156 0.56269531 -0.68398438 0.28554687 0 0 Z " fill="#89BBEC" transform="translate(334,255)"/>
<path d="M0 0 C0.66 0 1.32 0 2 0 C1.62257767 6.16456476 -0.15870308 9.17375515 -4 14 C-4.66 13.67 -5.32 13.34 -6 13 C-5.73445313 12.48050781 -5.46890625 11.96101563 -5.1953125 11.42578125 C-3.29301903 7.66979306 -1.48040295 3.94774121 0 0 Z " fill="#BDD8EE" transform="translate(312,307)"/>
<path d="M0 0 C0.33 0 0.66 0 1 0 C1.33 2.97 1.66 5.94 2 9 C3.98 8.67 5.96 8.34 8 8 C8 8.66 8 9.32 8 10 C9.98 10 11.96 10 14 10 C14 10.66 14 11.32 14 12 C6.575 11.01 6.575 11.01 -1 10 C-0.67 6.7 -0.34 3.4 0 0 Z " fill="#D9EDF9" transform="translate(301,97)"/>
<path d="M0 0 C1.31052767 4.30422506 0.45785552 7.9370534 -0.4375 12.25 C-0.58509766 12.99507812 -0.73269531 13.74015625 -0.88476562 14.5078125 C-1.2488694 16.34007665 -1.62341409 18.17026053 -2 20 C-2.33 20 -2.66 20 -3 20 C-4.07168689 13.35554131 -4.19099551 7.45767099 -2 1 C-1.34 0.67 -0.68 0.34 0 0 Z " fill="#D8ECFA" transform="translate(90,84)"/>
<path d="M0 0 C0.33 0 0.66 0 1 0 C0.67 2.64 0.34 5.28 0 8 C-0.66 8 -1.32 8 -2 8 C-2 8.66 -2 9.32 -2 10 C-3.65 10.33 -5.3 10.66 -7 11 C-6.34 10.67 -5.68 10.34 -5 10 C-5.33 9.01 -5.66 8.02 -6 7 C-5.01 6.34 -4.02 5.68 -3 5 C-2.67 4.01 -2.34 3.02 -2 2 C-1.34 2 -0.68 2 0 2 C0 1.34 0 0.68 0 0 Z " fill="#C0DAEE" transform="translate(243,310)"/>
<path d="M0 0 C0.33 0.99 0.66 1.98 1 3 C-0.07218201 4.01194706 -1.15826378 5.00918057 -2.25 6 C-3.15492188 6.8353125 -3.15492188 6.8353125 -4.078125 7.6875 C-6 9 -6 9 -10 9 C-8.77946141 5.33838422 -7.63217696 4.83729526 -4.4375 2.8125 C-3.61121094 2.28269531 -2.78492188 1.75289063 -1.93359375 1.20703125 C-1.29550781 0.80871094 -0.65742188 0.41039062 0 0 Z " fill="#B7D6ED" transform="translate(266,343)"/>
<path d="M0 0 C0.66 0 1.32 0 2 0 C2.08090971 1.62418745 2.13914995 3.24951745 2.1875 4.875 C2.22230469 5.77992188 2.25710937 6.68484375 2.29296875 7.6171875 C2.19628906 8.40351563 2.09960938 9.18984375 2 10 C1.01 10.66 0.02 11.32 -1 12 C-2.42857143 3.42857143 -2.42857143 3.42857143 0 0 Z " fill="#96C7EA" transform="translate(175,284)"/>
<path d="M0 0 C0.66 0.99 1.32 1.98 2 3 C-1.96 4.98 -1.96 4.98 -6 7 C-6 7.66 -6 8.32 -6 9 C-7.32 8.67 -8.64 8.34 -10 8 C-6.88983545 4.71211176 -3.98381075 2.16264012 0 0 Z " fill="#ADCDED" transform="translate(202,340)"/>
<path d="M0 0 C4.29 0.33 8.58 0.66 13 1 C8.19842172 4.20105218 3.08403021 4.25593353 -2.5625 3.5625 C-3.366875 3.376875 -4.17125 3.19125 -5 3 C-5 2.67 -5 2.34 -5 2 C-3.35 2 -1.7 2 0 2 C0 1.34 0 0.68 0 0 Z " fill="#EAF4FD" transform="translate(155,324)"/>
<path d="M0 0 C0.33 0 0.66 0 1 0 C1.02705729 1.77074917 1.04642195 3.54161711 1.0625 5.3125 C1.07410156 6.29863281 1.08570313 7.28476562 1.09765625 8.30078125 C1 11 1 11 0 14 C-0.66 14 -1.32 14 -2 14 C-1.85970581 11.8537974 -1.71261836 9.70803782 -1.5625 7.5625 C-1.48128906 6.36753906 -1.40007812 5.17257812 -1.31640625 3.94140625 C-1 1 -1 1 0 0 Z " fill="#B1D0E7" transform="translate(314,293)"/>
<path d="M0 0 C0 0.99 0 1.98 0 3 C0.99 3 1.98 3 3 3 C3.33 4.32 3.66 5.64 4 7 C3.34 7 2.68 7 2 7 C2 6.34 2 5.68 2 5 C-1.3 4.34 -4.6 3.68 -8 3 C-8 2.34 -8 1.68 -8 1 C-5.23735711 0.40267181 -2.83967231 0 0 0 Z " fill="#89B9EA" transform="translate(64,256)"/>
<path d="M0 0 C0.66 0.66 1.32 1.32 2 2 C1.67 2.99 1.34 3.98 1 5 C1 5.99 1 6.98 1 8 C0.01 8.495 0.01 8.495 -1 9 C-1 9.66 -1 10.32 -1 11 C-2.32 11 -3.64 11 -5 11 C-3.55049545 7.2089881 -1.84827434 3.6125362 0 0 Z " fill="#91C5F5" transform="translate(26,141)"/>
<path d="M0 0 C0 0.33 0 0.66 0 1 C-0.95712891 1.07347656 -0.95712891 1.07347656 -1.93359375 1.1484375 C-2.75988281 1.22320312 -3.58617187 1.29796875 -4.4375 1.375 C-5.67306641 1.47941406 -5.67306641 1.47941406 -6.93359375 1.5859375 C-7.95646484 1.79089844 -7.95646484 1.79089844 -9 2 C-9.33 2.66 -9.66 3.32 -10 4 C-12.64 3.67 -15.28 3.34 -18 3 C-17.67 2.34 -17.34 1.68 -17 1 C-11.35450392 -0.20116938 -5.75098214 -0.10414253 0 0 Z " fill="#ECF5FE" transform="translate(186,5)"/>
<path d="M0 0 C0.33 0 0.66 0 1 0 C1.07347656 1.08667969 1.07347656 1.08667969 1.1484375 2.1953125 C1.55206152 7.41458867 2.01275807 12.09813658 4 17 C0.99432748 14.57607055 0.07076678 13.36026722 -0.6875 9.5 C-0.790625 8.345 -0.89375 7.19 -1 6 C-1.226875 5.236875 -1.45375 4.47375 -1.6875 3.6875 C-1.790625 3.130625 -1.89375 2.57375 -2 2 C-1.34 1.34 -0.68 0.68 0 0 Z " fill="#F2F8FE" transform="translate(107,361)"/>
<path d="M0 0 C0.33 0 0.66 0 1 0 C1.56477413 12.92705221 1.56477413 12.92705221 -2 18 C-2.66 18.33 -3.32 18.66 -4 19 C-3.79503906 18.29875 -3.59007812 17.5975 -3.37890625 16.875 C-1.77632603 11.23146391 -0.55105987 5.84123457 0 0 Z " fill="#E1F0FD" transform="translate(142,360)"/>
<path d="M0 0 C0 2.97 0 5.94 0 9 C-0.99 9.495 -0.99 9.495 -2 10 C-2.33 8.02 -2.66 6.04 -3 4 C-3.99 4 -4.98 4 -6 4 C-6 3.34 -6 2.68 -6 2 C-3 0 -3 0 0 0 Z " fill="#95C8F5" transform="translate(311,283)"/>
<path d="M0 0 C0.66 0.33 1.32 0.66 2 1 C1.57847656 1.40089844 1.15695313 1.80179687 0.72265625 2.21484375 C-3.80173678 6.90956687 -4.97061497 10.52060152 -5 17 C-5.33 17 -5.66 17 -6 17 C-6.33 13.37 -6.66 9.74 -7 6 C-5.68 5.67 -4.36 5.34 -3 5 C-1.77472052 3.04978917 -1.77472052 3.04978917 -1 1 C-0.67 0.67 -0.34 0.34 0 0 Z " fill="#DAEBFA" transform="translate(114,353)"/>
<path d="M0 0 C-0.33 0.99 -0.66 1.98 -1 3 C-5.75016635 5.2012966 -9.88081854 5.1765235 -15 5 C-12.18459435 3.52159064 -9.39290564 2.37423966 -6.375 1.375 C-5.21097656 0.98441406 -5.21097656 0.98441406 -4.0234375 0.5859375 C-2 0 -2 0 0 0 Z " fill="#D8EDFB" transform="translate(331,261)"/>
<path d="M0 0 C0.99 1.485 0.99 1.485 2 3 C2.99 3 3.98 3 5 3 C4.25 8.75 4.25 8.75 2 11 C0.57741188 7.17679443 -0.24042276 4.08718695 0 0 Z " fill="#88BBF1" transform="translate(15,203)"/>
<path d="M0 0 C2.14729141 0.28073073 4.29283193 0.57488499 6.4375 0.875 C7.63246094 1.03742188 8.82742188 1.19984375 10.05859375 1.3671875 C11.51458984 1.68042969 11.51458984 1.68042969 13 2 C13.33 2.66 13.66 3.32 14 4 C8.80790596 4.21192221 4.873261 3.5912689 0 2 C0 1.34 0 0.68 0 0 Z " fill="#EEF8FE" transform="translate(309,105)"/>
<path d="M0 0 C0.05410687 1.77049689 0.09284119 3.54146849 0.125 5.3125 C0.14820313 6.29863281 0.17140625 7.28476562 0.1953125 8.30078125 C0 11 0 11 -2 14 C-2.33 12.35 -2.66 10.7 -3 9 C-2.67 9 -2.34 9 -2 9 C-1.67 7.02 -1.34 5.04 -1 3 C-2.65 3 -4.3 3 -6 3 C-2.25 0 -2.25 0 0 0 Z " fill="#99BDDE" transform="translate(246,278)"/>
<path d="M0 0 C0.66 1.32 1.32 2.64 2 4 C0.02 6.97 0.02 6.97 -2 10 C-3.01136941 7.26930259 -3.04557718 6.13998707 -2.125 3.3125 C-1 1 -1 1 0 0 Z " fill="#D1EAF6" transform="translate(215,298)"/>
<path d="M0 0 C0.33 0.99 0.66 1.98 1 3 C-0.109375 4.7890625 -0.109375 4.7890625 -1.75 6.625 C-2.28109375 7.23601562 -2.8121875 7.84703125 -3.359375 8.4765625 C-5 10 -5 10 -8 11 C-8 10.01 -8 9.02 -8 8 C-6.53311963 6.72445185 -5.06023134 5.45118883 -3.5078125 4.28125 C-1.72500021 2.88527155 -1.72500021 2.88527155 0 0 Z " fill="#9BC8EF" transform="translate(41,125)"/>
<path d="M0 0 C-2.88087546 2.40072955 -5.56404834 4.47291037 -9 6 C-8.67 4.35 -8.34 2.7 -8 1 C-5.07175348 0.02391783 -3.04386724 -0.08226668 0 0 Z " fill="#DAEFFD" transform="translate(140,336)"/>
<path d="M0 0 C0.66 0.33 1.32 0.66 2 1 C2 4 2 7 2 10 C-0.72426311 7.64722731 -1.8141763 5.37503669 -3 2 C-2.01 1.34 -1.02 0.68 0 0 Z " fill="#88BBF0" transform="translate(26,224)"/>
<path d="M0 0 C0.66 0.33 1.32 0.66 2 1 C-0.08439082 4.12658623 -0.8463034 4.4231517 -4 6 C-4.99 7.485 -4.99 7.485 -6 9 C-6.66 8.67 -7.32 8.34 -8 8 C-6.88333826 4.65001479 -6.25305075 4.20659778 -3.4375 2.3125 C-2.79683594 1.87550781 -2.15617187 1.43851562 -1.49609375 0.98828125 C-1.00238281 0.66214844 -0.50867188 0.33601563 0 0 Z " fill="#B1D0E8" transform="translate(97,283)"/>
<path d="M0 0 C0.66 0 1.32 0 2 0 C1.8864371 1.64666203 1.75882619 3.29236082 1.625 4.9375 C1.52058594 6.31228516 1.52058594 6.31228516 1.4140625 7.71484375 C1.27742187 8.46894531 1.14078125 9.22304688 1 10 C0.01 10.495 0.01 10.495 -1 11 C-2.26264601 6.70700357 -1.62950412 4.12168689 0 0 Z " fill="#B2D2EC" transform="translate(210,354)"/>
<path d="M0 0 C1.4835001 0.42257276 2.96176424 0.86356322 4.4375 1.3125 C5.67306641 1.67794922 5.67306641 1.67794922 6.93359375 2.05078125 C7.61550781 2.36402344 8.29742187 2.67726563 9 3 C9.33 3.99 9.66 4.98 10 6 C7.61435923 5.42415568 5.33317216 4.77772405 3 4 C2.67 4.66 2.34 5.32 2 6 C1.34 4.02 0.68 2.04 0 0 Z " fill="#CCE6F6" transform="translate(338,117)"/>
<path d="M0 0 C2.475 0.495 2.475 0.495 5 1 C5.33 1.99 5.66 2.98 6 4 C4.35 4.33 2.7 4.66 1 5 C0.67 3.35 0.34 1.7 0 0 Z " fill="#88BCEB" transform="translate(340,248)"/>
<path d="M0 0 C2 1.8125 2 1.8125 4 4 C4 4.99 4 5.98 4 7 C4.66 7 5.32 7 6 7 C6.33 8.32 6.66 9.64 7 11 C5.68 10.67 4.36 10.34 3 10 C2.690625 8.906875 2.38125 7.81375 2.0625 6.6875 C1.41662103 4.44592006 0.7376883 2.2130649 0 0 Z " fill="#F5F9FE" transform="translate(281,46)"/>
<path d="M0 0 C0 2.33333333 0 4.66666667 0 7 C-1.98 7 -3.96 7 -6 7 C-6 6.34 -6 5.68 -6 5 C-5.38125 4.9175 -4.7625 4.835 -4.125 4.75 C-1.81562433 4.18741541 -1.81562433 4.18741541 -0.75 1.9375 C-0.5025 1.298125 -0.255 0.65875 0 0 Z " fill="#BEDBF1" transform="translate(88,289)"/>
<path d="M0 0 C0 3.96 0 7.92 0 12 C-0.33 12 -0.66 12 -1 12 C-1 9.36 -1 6.72 -1 4 C-1.99 4 -2.98 4 -4 4 C-3.67 3.01 -3.34 2.02 -3 1 C-1 0 -1 0 0 0 Z " fill="#9BB9D7" transform="translate(109,277)"/>
<path d="M0 0 C0.33 1.32 0.66 2.64 1 4 C-0.98 4.33 -2.96 4.66 -5 5 C-4.67 3.68 -4.34 2.36 -4 1 C-2.68 0.67 -1.36 0.34 0 0 Z " fill="#94BBE1" transform="translate(314,278)"/>
<path d="M0 0 C0.33 0 0.66 0 1 0 C0.609375 6.0546875 0.609375 6.0546875 0 8 C-1.98 8.99 -1.98 8.99 -4 10 C-2.68 6.7 -1.36 3.4 0 0 Z " fill="#D3E9F8" transform="translate(373,216)"/>
<path d="M0 0 C3.74633486 1.24877829 5.41041797 3.06047445 8 6 C8 6.99 8 7.98 8 9 C7.34 9 6.68 9 6 9 C4.4921875 7.28515625 4.4921875 7.28515625 2.875 5.0625 C2.33617187 4.33160156 1.79734375 3.60070312 1.2421875 2.84765625 C0 1 0 1 0 0 Z " fill="#C9E2F5" transform="translate(356,131)"/>
<path d="M0 0 C0 0.99 0 1.98 0 3 C-5.41538462 6.07692308 -5.41538462 6.07692308 -8.375 5.6875 C-8.91125 5.460625 -9.4475 5.23375 -10 5 C-9.01 5 -8.02 5 -7 5 C-7 4.34 -7 3.68 -7 3 C-4.69 2.01 -2.38 1.02 0 0 Z " fill="#EDFAFE" transform="translate(151,12)"/>
<path d="M0 0 C0.66 0.33 1.32 0.66 2 1 C0.02 3.31 -1.96 5.62 -4 8 C-4.66 7.67 -5.32 7.34 -6 7 C-4.19587357 3.73539027 -3.16605307 2.11070205 0 0 Z " fill="#C1DBF1" transform="translate(191,347)"/>
<path d="M0 0 C0.99 0.33 1.98 0.66 3 1 C2.67 3.97 2.34 6.94 2 10 C-0.4294516 6.3558226 -0.16179575 4.28758728 0 0 Z " fill="#B3D1EA" transform="translate(243,299)"/>
<path d="M0 0 C0.66 0.33 1.32 0.66 2 1 C0.8125 3.4375 0.8125 3.4375 -1 6 C-3.6875 6.8125 -3.6875 6.8125 -6 7 C-6 6.34 -6 5.68 -6 5 C-5.195625 4.731875 -4.39125 4.46375 -3.5625 4.1875 C-2.716875 3.795625 -1.87125 3.40375 -1 3 C-0.67 2.01 -0.34 1.02 0 0 Z " fill="#C2DDF0" transform="translate(226,288)"/>
<path d="M0 0 C0.33 0.99 0.66 1.98 1 3 C-4.2734375 6.22265625 -4.2734375 6.22265625 -6 7 C-6.66 6.67 -7.32 6.34 -8 6 C-4.25 3 -4.25 3 -2 3 C-2 2.34 -2 1.68 -2 1 C-1.34 0.67 -0.68 0.34 0 0 Z " fill="#D7EEFC" transform="translate(352,247)"/>
<path d="M0 0 C1.8125 0.1875 1.8125 0.1875 4 1 C5.75 3.5625 5.75 3.5625 7 6 C6.01 6 5.02 6 4 6 C4 5.34 4 4.68 4 4 C3.01 3.67 2.02 3.34 1 3 C0.67 2.01 0.34 1.02 0 0 Z " fill="#87BBEF" transform="translate(31,237)"/>
<path d="M0 0 C0.99 0.33 1.98 0.66 3 1 C1.48065294 4.03869411 -0.98004772 4.64410306 -4 6 C-4.66 6 -5.32 6 -6 6 C-6 5.34 -6 4.68 -6 4 C-3 2 -3 2 0 2 C0 1.34 0 0.68 0 0 Z " fill="#C9E4F2" transform="translate(138,21)"/>
<path d="M0 0 C0.99 0.33 1.98 0.66 3 1 C0.36 2.98 -2.28 4.96 -5 7 C-4.67 5.68 -4.34 4.36 -4 3 C-3.34 3 -2.68 3 -2 3 C-2 2.34 -2 1.68 -2 1 C-1.34 0.67 -0.68 0.34 0 0 Z " fill="#BCD8F2" transform="translate(126,344)"/>
<path d="M0 0 C0.99 0.33 1.98 0.66 3 1 C1.6875 2.5 1.6875 2.5 0 4 C-0.99 4 -1.98 4 -3 4 C-3.33 4.66 -3.66 5.32 -4 6 C-3.6875 4.125 -3.6875 4.125 -3 2 C-2.01 1.34 -1.02 0.68 0 0 Z " fill="#DCEEFD" transform="translate(84,290)"/>
<path d="M0 0 C0 3.63 0 7.26 0 11 C-0.33 11 -0.66 11 -1 11 C-1 8.36 -1 5.72 -1 3 C-1.99 3 -2.98 3 -4 3 C-4 2.34 -4 1.68 -4 1 C-2 0 -2 0 0 0 Z " fill="#9FBBD1" transform="translate(178,277)"/>
<path d="M0 0 C0.99 0.33 1.98 0.66 3 1 C2.25 3.4375 2.25 3.4375 1 6 C-1.125 6.8125 -1.125 6.8125 -3 7 C-2.01 4.69 -1.02 2.38 0 0 Z " fill="#97C4E5" transform="translate(20,148)"/>
<path d="M0 0 C0.33 0 0.66 0 1 0 C1.1875 3.375 1.1875 3.375 1 7 C0.01 7.66 -0.98 8.32 -2 9 C-2.20140476 5.37471432 -1.85776765 3.13498292 0 0 Z " fill="#BBD7ED" transform="translate(174,309)"/>
<path d="M0 0 C0 3.90838866 -1.50567876 5.11594107 -4 8 C-4.66 7.67 -5.32 7.34 -6 7 C-5.34 5.68 -4.68 4.36 -4 3 C-3.34 3 -2.68 3 -2 3 C-2 2.34 -2 1.68 -2 1 C-1.34 0.67 -0.68 0.34 0 0 Z " fill="#BCDCEE" transform="translate(296,288)"/>
<path d="M0 0 C1.5625 1.75 1.5625 1.75 3 4 C2.6875 6.25 2.6875 6.25 2 8 C0.02 4.535 0.02 4.535 -2 1 C-1.34 0.67 -0.68 0.34 0 0 Z " fill="#E6F2FE" transform="translate(19,224)"/>
</svg>
