<?xml version="1.0" encoding="UTF-8"?>
<svg version="1.1" xmlns="http://www.w3.org/2000/svg" width="42" height="40">
<path d="M0 0 C2.91037922 2.39066864 3.69817374 4.87297768 4.75 8.4375 C4.0537445 12.61503301 3.28759052 15.89043483 -0.25 18.4375 C-1.24 18.7675 -2.23 19.0975 -3.25 19.4375 C-2.280625 20.05625 -1.31125 20.675 -0.3125 21.3125 C2.75 23.4375 2.75 23.4375 3.75 25.4375 C4.20269417 29.96444175 4.44261379 33.14254096 1.75 36.9375 C-1.38286114 39.54821762 -3.15002589 40.29511169 -7.24609375 39.953125 C-11.05842451 38.9721744 -12.67716088 37.46058597 -15.25 34.4375 C-15.25 32.1275 -15.25 29.8175 -15.25 27.4375 C-21.85 27.1075 -28.45 26.7775 -35.25 26.4375 C-35.91 25.1175 -36.57 23.7975 -37.25 22.4375 C-36.26 20.9525 -36.26 20.9525 -35.25 19.4375 C-36.05161791 16.76604463 -36.05161791 16.76604463 -37.25 14.4375 C-34.81085508 11.99835508 -34.03553569 12.15087477 -30.6796875 12.0234375 C-29.33583984 11.96542969 -29.33583984 11.96542969 -27.96484375 11.90625 C-27.02769531 11.8753125 -26.09054688 11.844375 -25.125 11.8125 C-24.18011719 11.77382812 -23.23523437 11.73515625 -22.26171875 11.6953125 C-19.92467625 11.60088654 -17.58764499 11.51531606 -15.25 11.4375 C-15.28867187 10.50550781 -15.32734375 9.57351563 -15.3671875 8.61328125 C-15.21964244 4.61481003 -13.99110704 3.25922783 -11.25 0.4375 C-7.69993232 -1.33753384 -3.78575346 -0.94643837 0 0 Z M-11.25 3.4375 C-12.54231642 6.47949472 -12.54231642 6.47949472 -13.25 9.4375 C-12.59 9.4375 -11.93 9.4375 -11.25 9.4375 C-9.6053326 6.97423288 -9.6053326 6.97423288 -8.25 4.4375 C-5.94 4.7675 -3.63 5.0975 -1.25 5.4375 C-1.0625 8.8125 -1.0625 8.8125 -1.25 12.4375 C-4.88256018 14.85920679 -6.77578695 14.7419503 -11.10546875 14.8515625 C-12.09792351 14.88061172 -12.09792351 14.88061172 -13.11042786 14.9102478 C-15.21932164 14.96992687 -17.32827037 15.01638087 -19.4375 15.0625 C-20.86916415 15.10069066 -22.30080559 15.13974303 -23.73242188 15.1796875 C-27.23807312 15.27561773 -30.74389445 15.35969197 -34.25 15.4375 C-34.25 15.7675 -34.25 16.0975 -34.25 16.4375 C-29.76604697 16.56129245 -25.28300398 16.65192571 -20.79785156 16.7121582 C-19.2729357 16.73727103 -17.74813985 16.77136883 -16.22363281 16.81469727 C-14.02899574 16.87550044 -11.8359519 16.90373887 -9.640625 16.92578125 C-8.32094727 16.95196533 -7.00126953 16.97814941 -5.64160156 17.00512695 C-2.11436118 16.73676338 -2.11436118 16.73676338 0.20800781 14.13354492 C2.04107617 11.4305427 2.04107617 11.4305427 1.8125 7.8125 C1.05355163 4.3230092 1.05355163 4.3230092 -1.625 2.5 C-5.43532826 0.95772427 -7.91447586 1.07035383 -11.25 3.4375 Z M-6.25 5.4375 C-8.75037734 7.61174117 -9.68628586 9.16795798 -10.25 12.4375 C-7.33347826 12.60431109 -7.33347826 12.60431109 -4.25 12.4375 C-3.59 11.7775 -2.93 11.1175 -2.25 10.4375 C-2.33571661 8.34458843 -2.33571661 8.34458843 -3.25 6.4375 C-4.24 6.1075 -5.23 5.7775 -6.25 5.4375 Z M-34.25 22.4375 C-34.25 23.0975 -34.25 23.7575 -34.25 24.4375 C-33.28586182 24.46255615 -32.32172363 24.4876123 -31.32836914 24.51342773 C-27.76312158 24.60735306 -24.19807567 24.70760939 -20.63305664 24.80981445 C-19.08785711 24.85321985 -17.54260786 24.89489071 -15.99731445 24.93481445 C-13.78060904 24.99238199 -11.5641552 25.05611424 -9.34765625 25.12109375 C-8.30545677 25.14616249 -8.30545677 25.14616249 -7.24220276 25.17173767 C-2.36387171 25.32362829 -2.36387171 25.32362829 -1.25 26.4375 C-1.125 29.9375 -1.125 29.9375 -1.25 33.4375 C-2.25 34.4375 -2.25 34.4375 -4.09765625 34.53515625 C-6.1484375 34.50260417 -8.19921875 34.47005208 -10.25 34.4375 C-10.58 32.7875 -10.91 31.1375 -11.25 29.4375 C-11.91 29.4375 -12.57 29.4375 -13.25 29.4375 C-12.23072501 33.66532673 -12.23072501 33.66532673 -9.5 36.875 C-6.38393644 37.65401589 -4.3205885 37.35214338 -1.25 36.4375 C0.84764165 34.91855194 0.84764165 34.91855194 1.75 32.4375 C1.68710487 27.62662543 1.68710487 27.62662543 -0.86035156 23.7409668 C-4.1556091 21.94352299 -6.68084276 22.09853495 -10.421875 22.14453125 C-11.1042926 22.14877609 -11.78671021 22.15302094 -12.48980713 22.15739441 C-14.66028004 22.17413028 -16.82980979 22.21177041 -19 22.25 C-20.47524697 22.26505354 -21.95050855 22.27874078 -23.42578125 22.29101562 C-27.03415844 22.32401623 -30.6419871 22.37576233 -34.25 22.4375 Z M-10.25 26.4375 C-9.5545656 29.44134054 -9.5545656 29.44134054 -8.25 32.4375 C-6.3245356 33.5865712 -6.3245356 33.5865712 -4.25 33.4375 C-3.59 32.7775 -2.93 32.1175 -2.25 31.4375 C-2.65528901 28.65512345 -2.65528901 28.65512345 -4.25 26.4375 C-6.24958364 26.39669217 -8.25045254 26.39495644 -10.25 26.4375 Z " fill="#FFFFFF" transform="translate(37.25,0.5625)"/>
<path d="M0 0 C5.94 0 11.88 0 18 0 C18 0.66 18 1.32 18 2 C12.06 2 6.12 2 0 2 C0 1.34 0 0.68 0 0 Z " fill="#FFFFFF" transform="translate(2,28)"/>
<path d="M0 0 C4.29 0 8.58 0 13 0 C13.33 0.66 13.66 1.32 14 2 C9.38 2 4.76 2 0 2 C0 1.34 0 0.68 0 0 Z " fill="#FFFFFF" transform="translate(2,10)"/>
<path d="M0 0 C0.99 0 1.98 0 3 0 C3 0.66 3 1.32 3 2 C2.01 2 1.02 2 0 2 C0 1.34 0 0.68 0 0 Z " fill="#FFFFFF" transform="translate(17,10)"/>
</svg>
